G75*
G70*
%OFA0B0*%
%FSLAX24Y24*%
%IPPOS*%
%LPD*%
%AMOC8*
5,1,8,0,0,1.08239X$1,22.5*
%
%ADD10R,0.0870X0.0240*%
%ADD11R,0.0472X0.0315*%
%ADD12R,0.0315X0.0472*%
%ADD13R,0.0579X0.0500*%
%ADD14R,0.2126X0.1575*%
%ADD15R,0.2441X0.2283*%
%ADD16R,0.1181X0.0630*%
%ADD17R,0.0580X0.0110*%
%ADD18R,0.0110X0.0580*%
%ADD19R,0.0748X0.0512*%
%ADD20R,0.0591X0.0217*%
%ADD21R,0.0217X0.0591*%
%ADD22R,0.2165X0.0591*%
%ADD23R,0.0780X0.0200*%
%ADD24R,0.0580X0.0210*%
%ADD25R,0.0984X0.0669*%
%ADD26R,0.0551X0.0394*%
%ADD27R,0.0620X0.0110*%
%ADD28R,0.0110X0.0620*%
%ADD29R,0.0472X0.0551*%
%ADD30R,0.0236X0.0236*%
%ADD31R,0.0120X0.0240*%
%ADD32R,0.0551X0.0472*%
%ADD33R,0.0551X0.0630*%
%ADD34R,0.0630X0.0551*%
D10*
X009111Y005875D03*
X009111Y006375D03*
X009111Y006875D03*
X009111Y007375D03*
X011171Y007375D03*
X011171Y006875D03*
X011171Y006375D03*
X011171Y005875D03*
X016836Y005725D03*
X016836Y005225D03*
X016836Y006225D03*
X016836Y006725D03*
X018896Y006725D03*
X018896Y006225D03*
X018896Y005725D03*
X018896Y005225D03*
D11*
X016766Y004729D03*
X016766Y004021D03*
X023610Y004291D03*
X023610Y004999D03*
X035405Y006879D03*
X035405Y007588D03*
X035405Y008040D03*
X035405Y008749D03*
X036045Y008989D03*
X036705Y008988D03*
X036705Y008279D03*
X036045Y008280D03*
X035455Y014929D03*
X035455Y015638D03*
X035455Y016090D03*
X036105Y016540D03*
X036805Y016539D03*
X036805Y017248D03*
X036105Y017249D03*
X035455Y016799D03*
X036021Y022891D03*
X036610Y022891D03*
X036610Y023599D03*
X036021Y023600D03*
X032010Y024091D03*
X032010Y024799D03*
X032210Y027865D03*
X032210Y028573D03*
X034135Y028660D03*
X034786Y028656D03*
X034786Y029365D03*
X034135Y029368D03*
X038373Y033035D03*
X038373Y033744D03*
X038373Y034235D03*
X038373Y034944D03*
X038373Y035535D03*
X038373Y036244D03*
X039278Y042870D03*
X039278Y043578D03*
X034688Y043554D03*
X034688Y042846D03*
X029878Y042850D03*
X029878Y043558D03*
X025088Y043568D03*
X025088Y042860D03*
X019994Y042973D03*
X019994Y043682D03*
X015290Y043672D03*
X015290Y042963D03*
X010590Y042876D03*
X010590Y043584D03*
X005890Y043578D03*
X005890Y042870D03*
X019910Y036899D03*
X019910Y036191D03*
X026916Y026556D03*
X026916Y025847D03*
X029779Y027877D03*
X029779Y028586D03*
D12*
X008212Y005275D03*
X008920Y005275D03*
X009220Y007975D03*
X008512Y007975D03*
X008105Y007981D03*
X007397Y007981D03*
X010241Y007976D03*
X010950Y007976D03*
X015756Y002945D03*
X016464Y002945D03*
X016812Y007375D03*
X016812Y008075D03*
X017520Y008075D03*
X017520Y007375D03*
X018212Y007375D03*
X018920Y007375D03*
X026256Y008745D03*
X026964Y008745D03*
X034191Y006916D03*
X034900Y006916D03*
X037421Y006464D03*
X037411Y005764D03*
X038120Y005764D03*
X038130Y006464D03*
X038130Y008164D03*
X037421Y008164D03*
X037421Y009064D03*
X037421Y009664D03*
X037419Y010264D03*
X037419Y010864D03*
X037419Y011464D03*
X036790Y011464D03*
X036081Y011464D03*
X038128Y011464D03*
X038128Y010864D03*
X038128Y010264D03*
X038130Y009664D03*
X038130Y009064D03*
X038140Y014314D03*
X038140Y014914D03*
X037431Y014914D03*
X037431Y014314D03*
X037421Y016314D03*
X038130Y016314D03*
X038130Y017264D03*
X038128Y017864D03*
X038128Y018464D03*
X038128Y019064D03*
X038128Y019664D03*
X037419Y019664D03*
X037419Y019064D03*
X037419Y018464D03*
X037419Y017864D03*
X037421Y017264D03*
X036190Y019364D03*
X035481Y019364D03*
X034928Y014964D03*
X034219Y014964D03*
X039949Y026007D03*
X040658Y026007D03*
X040655Y026710D03*
X039947Y026710D03*
X040956Y028545D03*
X041664Y028545D03*
X036948Y027050D03*
X036239Y027050D03*
X034264Y028045D03*
X033556Y028045D03*
X028464Y026645D03*
X027756Y026645D03*
X033156Y033245D03*
X033864Y033245D03*
X029420Y036260D03*
X028712Y036260D03*
X028364Y034245D03*
X027656Y034245D03*
X026364Y038945D03*
X025656Y038945D03*
X039419Y036889D03*
X040127Y036889D03*
X040700Y036882D03*
X041408Y036882D03*
X004177Y040181D03*
X003468Y040181D03*
X003469Y032287D03*
X004177Y032287D03*
X004174Y024402D03*
X003465Y024402D03*
X003466Y016665D03*
X004174Y016665D03*
D13*
X011166Y004621D03*
X011166Y002929D03*
X020166Y003329D03*
X020166Y005021D03*
D14*
X022080Y005872D03*
X022080Y009730D03*
X014080Y007630D03*
X014080Y003772D03*
D15*
X027417Y004101D03*
D16*
X024590Y003203D03*
X024590Y004999D03*
D17*
X032856Y024353D03*
X032856Y024543D03*
X032856Y024743D03*
X032856Y024943D03*
X032856Y025133D03*
X032856Y025333D03*
X032856Y025533D03*
X032856Y025733D03*
X032856Y025923D03*
X032856Y026123D03*
X032856Y026323D03*
X032856Y026513D03*
X036176Y026513D03*
X036176Y026323D03*
X036176Y026123D03*
X036176Y025923D03*
X036176Y025733D03*
X036176Y025533D03*
X036176Y025333D03*
X036176Y025133D03*
X036176Y024943D03*
X036176Y024743D03*
X036176Y024543D03*
X036176Y024353D03*
D18*
X035596Y023773D03*
X035406Y023773D03*
X035206Y023773D03*
X035006Y023773D03*
X034816Y023773D03*
X034616Y023773D03*
X034416Y023773D03*
X034216Y023773D03*
X034026Y023773D03*
X033826Y023773D03*
X033626Y023773D03*
X033436Y023773D03*
X033436Y027093D03*
X033626Y027093D03*
X033826Y027093D03*
X034026Y027093D03*
X034216Y027093D03*
X034416Y027093D03*
X034616Y027093D03*
X034816Y027093D03*
X035006Y027093D03*
X035206Y027093D03*
X035406Y027093D03*
X035596Y027093D03*
D19*
X031571Y027095D03*
X030311Y027095D03*
X030311Y029260D03*
X031571Y029260D03*
D20*
X029960Y018770D03*
X029960Y018455D03*
X029960Y018140D03*
X029960Y017825D03*
X029960Y017510D03*
X029960Y017195D03*
X029960Y016880D03*
X029960Y016565D03*
X029960Y016250D03*
X029960Y015935D03*
X029960Y015620D03*
X034449Y015659D03*
X034449Y015974D03*
X034449Y016289D03*
X034449Y016604D03*
X034449Y016919D03*
X034449Y017234D03*
X034449Y017549D03*
X034449Y017864D03*
X034449Y018179D03*
X034449Y018494D03*
X034449Y018809D03*
X034389Y010788D03*
X034389Y010473D03*
X034389Y010158D03*
X034389Y009843D03*
X034389Y009528D03*
X034389Y009213D03*
X034389Y008898D03*
X034389Y008583D03*
X034389Y008268D03*
X034389Y007954D03*
X034389Y007639D03*
X029901Y007599D03*
X029901Y007914D03*
X029901Y008229D03*
X029901Y008544D03*
X029901Y008859D03*
X029901Y009174D03*
X029901Y009489D03*
X029901Y009804D03*
X029901Y010119D03*
X029901Y010434D03*
X029901Y010749D03*
D21*
X030570Y011418D03*
X030885Y011418D03*
X031200Y011418D03*
X031515Y011418D03*
X031830Y011418D03*
X032145Y011418D03*
X032460Y011418D03*
X032775Y011418D03*
X033090Y011418D03*
X033405Y011418D03*
X033720Y011418D03*
X033779Y014951D03*
X033464Y014951D03*
X033149Y014951D03*
X032834Y014951D03*
X032519Y014951D03*
X032205Y014951D03*
X031890Y014951D03*
X031575Y014951D03*
X031260Y014951D03*
X030945Y014951D03*
X030630Y014951D03*
X030630Y019439D03*
X030945Y019439D03*
X031260Y019439D03*
X031575Y019439D03*
X031890Y019439D03*
X032205Y019439D03*
X032519Y019439D03*
X032834Y019439D03*
X033149Y019439D03*
X033464Y019439D03*
X033779Y019439D03*
X033720Y006930D03*
X033405Y006930D03*
X033090Y006930D03*
X032775Y006930D03*
X032460Y006930D03*
X032145Y006930D03*
X031830Y006930D03*
X031515Y006930D03*
X031200Y006930D03*
X030885Y006930D03*
X030570Y006930D03*
D22*
X030442Y005464D03*
X033828Y005464D03*
X033567Y013364D03*
X030181Y013364D03*
D23*
X039303Y032739D03*
X039303Y033239D03*
X039303Y033739D03*
X039303Y034239D03*
X039303Y034739D03*
X039303Y035239D03*
X039303Y035739D03*
X039303Y036239D03*
X041243Y036239D03*
X041243Y035739D03*
X041243Y035239D03*
X041243Y034739D03*
X041243Y034239D03*
X041243Y033739D03*
X041243Y033239D03*
X041243Y032739D03*
D24*
X040205Y024588D03*
X040205Y024088D03*
X040205Y023588D03*
X040205Y023088D03*
X037365Y023088D03*
X037365Y023588D03*
X037365Y024088D03*
X037365Y024588D03*
D25*
X028574Y016912D03*
X028574Y015416D03*
X028674Y008612D03*
X028674Y007116D03*
D26*
X027997Y022281D03*
X027997Y023029D03*
X028863Y022655D03*
D27*
X028823Y036925D03*
X028823Y037121D03*
X028823Y037318D03*
X028823Y037515D03*
X028823Y037712D03*
X028823Y037909D03*
X028823Y038106D03*
X028823Y038303D03*
X026382Y038303D03*
X026382Y038106D03*
X026382Y037909D03*
X026382Y037712D03*
X026382Y037515D03*
X026382Y037318D03*
X026382Y037121D03*
X026382Y036925D03*
D28*
X026914Y036393D03*
X027111Y036393D03*
X027308Y036393D03*
X027505Y036393D03*
X027701Y036393D03*
X027898Y036393D03*
X028095Y036393D03*
X028292Y036393D03*
X028292Y038834D03*
X028095Y038834D03*
X027898Y038834D03*
X027701Y038834D03*
X027505Y038834D03*
X027308Y038834D03*
X027111Y038834D03*
X026914Y038834D03*
D29*
X027227Y043066D03*
X026045Y043066D03*
X022127Y043166D03*
X020945Y043166D03*
X017414Y043173D03*
X016233Y043173D03*
X012820Y043260D03*
X011639Y043260D03*
X008120Y043166D03*
X006939Y043166D03*
X002556Y040178D03*
X001375Y040178D03*
X001397Y032288D03*
X002579Y032288D03*
X002501Y024407D03*
X001320Y024407D03*
X001371Y016668D03*
X002552Y016668D03*
X030935Y043160D03*
X032117Y043160D03*
X035645Y043160D03*
X036827Y043160D03*
X040232Y043153D03*
X041414Y043153D03*
D30*
X016546Y039332D03*
X016034Y039332D03*
X016290Y038604D03*
X016034Y031432D03*
X016546Y031432D03*
X016290Y030704D03*
X016034Y023532D03*
X016546Y023532D03*
X016290Y022804D03*
X016034Y015732D03*
X016546Y015732D03*
X016290Y015004D03*
D31*
X033098Y034291D03*
X033354Y034291D03*
X033610Y034291D03*
X033610Y034980D03*
X033354Y034980D03*
X033098Y034980D03*
D32*
X025210Y009636D03*
X025210Y008455D03*
D33*
X028859Y035345D03*
X029961Y035345D03*
D34*
X032810Y030396D03*
X032810Y029294D03*
M02*
