G75*
G70*
%OFA0B0*%
%FSLAX24Y24*%
%IPPOS*%
%LPD*%
%AMOC8*
5,1,8,0,0,1.08239X$1,22.5*
%
%ADD10C,0.0000*%
%ADD11R,0.0315X0.0472*%
%ADD12R,0.0472X0.0827*%
%ADD13R,0.0315X0.0157*%
%ADD14R,0.0472X0.0315*%
%ADD15R,0.0787X0.0787*%
%ADD16R,0.0945X0.0945*%
D10*
X000110Y000170D02*
X000110Y047414D01*
X047354Y047414D01*
X047354Y000170D01*
X000110Y000170D01*
X001529Y002140D02*
X001531Y002187D01*
X001537Y002233D01*
X001547Y002279D01*
X001560Y002324D01*
X001578Y002367D01*
X001599Y002409D01*
X001623Y002449D01*
X001651Y002486D01*
X001682Y002521D01*
X001716Y002554D01*
X001752Y002583D01*
X001791Y002609D01*
X001832Y002632D01*
X001875Y002651D01*
X001919Y002667D01*
X001964Y002679D01*
X002010Y002687D01*
X002057Y002691D01*
X002103Y002691D01*
X002150Y002687D01*
X002196Y002679D01*
X002241Y002667D01*
X002285Y002651D01*
X002328Y002632D01*
X002369Y002609D01*
X002408Y002583D01*
X002444Y002554D01*
X002478Y002521D01*
X002509Y002486D01*
X002537Y002449D01*
X002561Y002409D01*
X002582Y002367D01*
X002600Y002324D01*
X002613Y002279D01*
X002623Y002233D01*
X002629Y002187D01*
X002631Y002140D01*
X002629Y002093D01*
X002623Y002047D01*
X002613Y002001D01*
X002600Y001956D01*
X002582Y001913D01*
X002561Y001871D01*
X002537Y001831D01*
X002509Y001794D01*
X002478Y001759D01*
X002444Y001726D01*
X002408Y001697D01*
X002369Y001671D01*
X002328Y001648D01*
X002285Y001629D01*
X002241Y001613D01*
X002196Y001601D01*
X002150Y001593D01*
X002103Y001589D01*
X002057Y001589D01*
X002010Y001593D01*
X001964Y001601D01*
X001919Y001613D01*
X001875Y001629D01*
X001832Y001648D01*
X001791Y001671D01*
X001752Y001697D01*
X001716Y001726D01*
X001682Y001759D01*
X001651Y001794D01*
X001623Y001831D01*
X001599Y001871D01*
X001578Y001913D01*
X001560Y001956D01*
X001547Y002001D01*
X001537Y002047D01*
X001531Y002093D01*
X001529Y002140D01*
X006154Y007857D02*
X006156Y007904D01*
X006162Y007950D01*
X006172Y007996D01*
X006185Y008041D01*
X006203Y008084D01*
X006224Y008126D01*
X006248Y008166D01*
X006276Y008203D01*
X006307Y008238D01*
X006341Y008271D01*
X006377Y008300D01*
X006416Y008326D01*
X006457Y008349D01*
X006500Y008368D01*
X006544Y008384D01*
X006589Y008396D01*
X006635Y008404D01*
X006682Y008408D01*
X006728Y008408D01*
X006775Y008404D01*
X006821Y008396D01*
X006866Y008384D01*
X006910Y008368D01*
X006953Y008349D01*
X006994Y008326D01*
X007033Y008300D01*
X007069Y008271D01*
X007103Y008238D01*
X007134Y008203D01*
X007162Y008166D01*
X007186Y008126D01*
X007207Y008084D01*
X007225Y008041D01*
X007238Y007996D01*
X007248Y007950D01*
X007254Y007904D01*
X007256Y007857D01*
X007254Y007810D01*
X007248Y007764D01*
X007238Y007718D01*
X007225Y007673D01*
X007207Y007630D01*
X007186Y007588D01*
X007162Y007548D01*
X007134Y007511D01*
X007103Y007476D01*
X007069Y007443D01*
X007033Y007414D01*
X006994Y007388D01*
X006953Y007365D01*
X006910Y007346D01*
X006866Y007330D01*
X006821Y007318D01*
X006775Y007310D01*
X006728Y007306D01*
X006682Y007306D01*
X006635Y007310D01*
X006589Y007318D01*
X006544Y007330D01*
X006500Y007346D01*
X006457Y007365D01*
X006416Y007388D01*
X006377Y007414D01*
X006341Y007443D01*
X006307Y007476D01*
X006276Y007511D01*
X006248Y007548D01*
X006224Y007588D01*
X006203Y007630D01*
X006185Y007673D01*
X006172Y007718D01*
X006162Y007764D01*
X006156Y007810D01*
X006154Y007857D01*
X018358Y007857D02*
X018360Y007904D01*
X018366Y007950D01*
X018376Y007996D01*
X018389Y008041D01*
X018407Y008084D01*
X018428Y008126D01*
X018452Y008166D01*
X018480Y008203D01*
X018511Y008238D01*
X018545Y008271D01*
X018581Y008300D01*
X018620Y008326D01*
X018661Y008349D01*
X018704Y008368D01*
X018748Y008384D01*
X018793Y008396D01*
X018839Y008404D01*
X018886Y008408D01*
X018932Y008408D01*
X018979Y008404D01*
X019025Y008396D01*
X019070Y008384D01*
X019114Y008368D01*
X019157Y008349D01*
X019198Y008326D01*
X019237Y008300D01*
X019273Y008271D01*
X019307Y008238D01*
X019338Y008203D01*
X019366Y008166D01*
X019390Y008126D01*
X019411Y008084D01*
X019429Y008041D01*
X019442Y007996D01*
X019452Y007950D01*
X019458Y007904D01*
X019460Y007857D01*
X019458Y007810D01*
X019452Y007764D01*
X019442Y007718D01*
X019429Y007673D01*
X019411Y007630D01*
X019390Y007588D01*
X019366Y007548D01*
X019338Y007511D01*
X019307Y007476D01*
X019273Y007443D01*
X019237Y007414D01*
X019198Y007388D01*
X019157Y007365D01*
X019114Y007346D01*
X019070Y007330D01*
X019025Y007318D01*
X018979Y007310D01*
X018932Y007306D01*
X018886Y007306D01*
X018839Y007310D01*
X018793Y007318D01*
X018748Y007330D01*
X018704Y007346D01*
X018661Y007365D01*
X018620Y007388D01*
X018581Y007414D01*
X018545Y007443D01*
X018511Y007476D01*
X018480Y007511D01*
X018452Y007548D01*
X018428Y007588D01*
X018407Y007630D01*
X018389Y007673D01*
X018376Y007718D01*
X018366Y007764D01*
X018360Y007810D01*
X018358Y007857D01*
X042505Y009039D02*
X042507Y009089D01*
X042513Y009139D01*
X042523Y009188D01*
X042537Y009236D01*
X042554Y009283D01*
X042575Y009328D01*
X042600Y009372D01*
X042628Y009413D01*
X042660Y009452D01*
X042694Y009489D01*
X042731Y009523D01*
X042771Y009553D01*
X042813Y009580D01*
X042857Y009604D01*
X042903Y009625D01*
X042950Y009641D01*
X042998Y009654D01*
X043048Y009663D01*
X043097Y009668D01*
X043148Y009669D01*
X043198Y009666D01*
X043247Y009659D01*
X043296Y009648D01*
X043344Y009633D01*
X043390Y009615D01*
X043435Y009593D01*
X043478Y009567D01*
X043519Y009538D01*
X043558Y009506D01*
X043594Y009471D01*
X043626Y009433D01*
X043656Y009393D01*
X043683Y009350D01*
X043706Y009306D01*
X043725Y009260D01*
X043741Y009212D01*
X043753Y009163D01*
X043761Y009114D01*
X043765Y009064D01*
X043765Y009014D01*
X043761Y008964D01*
X043753Y008915D01*
X043741Y008866D01*
X043725Y008818D01*
X043706Y008772D01*
X043683Y008728D01*
X043656Y008685D01*
X043626Y008645D01*
X043594Y008607D01*
X043558Y008572D01*
X043519Y008540D01*
X043478Y008511D01*
X043435Y008485D01*
X043390Y008463D01*
X043344Y008445D01*
X043296Y008430D01*
X043247Y008419D01*
X043198Y008412D01*
X043148Y008409D01*
X043097Y008410D01*
X043048Y008415D01*
X042998Y008424D01*
X042950Y008437D01*
X042903Y008453D01*
X042857Y008474D01*
X042813Y008498D01*
X042771Y008525D01*
X042731Y008555D01*
X042694Y008589D01*
X042660Y008626D01*
X042628Y008665D01*
X042600Y008706D01*
X042575Y008750D01*
X042554Y008795D01*
X042537Y008842D01*
X042523Y008890D01*
X042513Y008939D01*
X042507Y008989D01*
X042505Y009039D01*
X042505Y013039D02*
X042507Y013089D01*
X042513Y013139D01*
X042523Y013188D01*
X042537Y013236D01*
X042554Y013283D01*
X042575Y013328D01*
X042600Y013372D01*
X042628Y013413D01*
X042660Y013452D01*
X042694Y013489D01*
X042731Y013523D01*
X042771Y013553D01*
X042813Y013580D01*
X042857Y013604D01*
X042903Y013625D01*
X042950Y013641D01*
X042998Y013654D01*
X043048Y013663D01*
X043097Y013668D01*
X043148Y013669D01*
X043198Y013666D01*
X043247Y013659D01*
X043296Y013648D01*
X043344Y013633D01*
X043390Y013615D01*
X043435Y013593D01*
X043478Y013567D01*
X043519Y013538D01*
X043558Y013506D01*
X043594Y013471D01*
X043626Y013433D01*
X043656Y013393D01*
X043683Y013350D01*
X043706Y013306D01*
X043725Y013260D01*
X043741Y013212D01*
X043753Y013163D01*
X043761Y013114D01*
X043765Y013064D01*
X043765Y013014D01*
X043761Y012964D01*
X043753Y012915D01*
X043741Y012866D01*
X043725Y012818D01*
X043706Y012772D01*
X043683Y012728D01*
X043656Y012685D01*
X043626Y012645D01*
X043594Y012607D01*
X043558Y012572D01*
X043519Y012540D01*
X043478Y012511D01*
X043435Y012485D01*
X043390Y012463D01*
X043344Y012445D01*
X043296Y012430D01*
X043247Y012419D01*
X043198Y012412D01*
X043148Y012409D01*
X043097Y012410D01*
X043048Y012415D01*
X042998Y012424D01*
X042950Y012437D01*
X042903Y012453D01*
X042857Y012474D01*
X042813Y012498D01*
X042771Y012525D01*
X042731Y012555D01*
X042694Y012589D01*
X042660Y012626D01*
X042628Y012665D01*
X042600Y012706D01*
X042575Y012750D01*
X042554Y012795D01*
X042537Y012842D01*
X042523Y012890D01*
X042513Y012939D01*
X042507Y012989D01*
X042505Y013039D01*
X042505Y017539D02*
X042507Y017589D01*
X042513Y017639D01*
X042523Y017688D01*
X042537Y017736D01*
X042554Y017783D01*
X042575Y017828D01*
X042600Y017872D01*
X042628Y017913D01*
X042660Y017952D01*
X042694Y017989D01*
X042731Y018023D01*
X042771Y018053D01*
X042813Y018080D01*
X042857Y018104D01*
X042903Y018125D01*
X042950Y018141D01*
X042998Y018154D01*
X043048Y018163D01*
X043097Y018168D01*
X043148Y018169D01*
X043198Y018166D01*
X043247Y018159D01*
X043296Y018148D01*
X043344Y018133D01*
X043390Y018115D01*
X043435Y018093D01*
X043478Y018067D01*
X043519Y018038D01*
X043558Y018006D01*
X043594Y017971D01*
X043626Y017933D01*
X043656Y017893D01*
X043683Y017850D01*
X043706Y017806D01*
X043725Y017760D01*
X043741Y017712D01*
X043753Y017663D01*
X043761Y017614D01*
X043765Y017564D01*
X043765Y017514D01*
X043761Y017464D01*
X043753Y017415D01*
X043741Y017366D01*
X043725Y017318D01*
X043706Y017272D01*
X043683Y017228D01*
X043656Y017185D01*
X043626Y017145D01*
X043594Y017107D01*
X043558Y017072D01*
X043519Y017040D01*
X043478Y017011D01*
X043435Y016985D01*
X043390Y016963D01*
X043344Y016945D01*
X043296Y016930D01*
X043247Y016919D01*
X043198Y016912D01*
X043148Y016909D01*
X043097Y016910D01*
X043048Y016915D01*
X042998Y016924D01*
X042950Y016937D01*
X042903Y016953D01*
X042857Y016974D01*
X042813Y016998D01*
X042771Y017025D01*
X042731Y017055D01*
X042694Y017089D01*
X042660Y017126D01*
X042628Y017165D01*
X042600Y017206D01*
X042575Y017250D01*
X042554Y017295D01*
X042537Y017342D01*
X042523Y017390D01*
X042513Y017439D01*
X042507Y017489D01*
X042505Y017539D01*
X042505Y004539D02*
X042507Y004589D01*
X042513Y004639D01*
X042523Y004688D01*
X042537Y004736D01*
X042554Y004783D01*
X042575Y004828D01*
X042600Y004872D01*
X042628Y004913D01*
X042660Y004952D01*
X042694Y004989D01*
X042731Y005023D01*
X042771Y005053D01*
X042813Y005080D01*
X042857Y005104D01*
X042903Y005125D01*
X042950Y005141D01*
X042998Y005154D01*
X043048Y005163D01*
X043097Y005168D01*
X043148Y005169D01*
X043198Y005166D01*
X043247Y005159D01*
X043296Y005148D01*
X043344Y005133D01*
X043390Y005115D01*
X043435Y005093D01*
X043478Y005067D01*
X043519Y005038D01*
X043558Y005006D01*
X043594Y004971D01*
X043626Y004933D01*
X043656Y004893D01*
X043683Y004850D01*
X043706Y004806D01*
X043725Y004760D01*
X043741Y004712D01*
X043753Y004663D01*
X043761Y004614D01*
X043765Y004564D01*
X043765Y004514D01*
X043761Y004464D01*
X043753Y004415D01*
X043741Y004366D01*
X043725Y004318D01*
X043706Y004272D01*
X043683Y004228D01*
X043656Y004185D01*
X043626Y004145D01*
X043594Y004107D01*
X043558Y004072D01*
X043519Y004040D01*
X043478Y004011D01*
X043435Y003985D01*
X043390Y003963D01*
X043344Y003945D01*
X043296Y003930D01*
X043247Y003919D01*
X043198Y003912D01*
X043148Y003909D01*
X043097Y003910D01*
X043048Y003915D01*
X042998Y003924D01*
X042950Y003937D01*
X042903Y003953D01*
X042857Y003974D01*
X042813Y003998D01*
X042771Y004025D01*
X042731Y004055D01*
X042694Y004089D01*
X042660Y004126D01*
X042628Y004165D01*
X042600Y004206D01*
X042575Y004250D01*
X042554Y004295D01*
X042537Y004342D01*
X042523Y004390D01*
X042513Y004439D01*
X042507Y004489D01*
X042505Y004539D01*
X044729Y002140D02*
X044731Y002187D01*
X044737Y002233D01*
X044747Y002279D01*
X044760Y002324D01*
X044778Y002367D01*
X044799Y002409D01*
X044823Y002449D01*
X044851Y002486D01*
X044882Y002521D01*
X044916Y002554D01*
X044952Y002583D01*
X044991Y002609D01*
X045032Y002632D01*
X045075Y002651D01*
X045119Y002667D01*
X045164Y002679D01*
X045210Y002687D01*
X045257Y002691D01*
X045303Y002691D01*
X045350Y002687D01*
X045396Y002679D01*
X045441Y002667D01*
X045485Y002651D01*
X045528Y002632D01*
X045569Y002609D01*
X045608Y002583D01*
X045644Y002554D01*
X045678Y002521D01*
X045709Y002486D01*
X045737Y002449D01*
X045761Y002409D01*
X045782Y002367D01*
X045800Y002324D01*
X045813Y002279D01*
X045823Y002233D01*
X045829Y002187D01*
X045831Y002140D01*
X045829Y002093D01*
X045823Y002047D01*
X045813Y002001D01*
X045800Y001956D01*
X045782Y001913D01*
X045761Y001871D01*
X045737Y001831D01*
X045709Y001794D01*
X045678Y001759D01*
X045644Y001726D01*
X045608Y001697D01*
X045569Y001671D01*
X045528Y001648D01*
X045485Y001629D01*
X045441Y001613D01*
X045396Y001601D01*
X045350Y001593D01*
X045303Y001589D01*
X045257Y001589D01*
X045210Y001593D01*
X045164Y001601D01*
X045119Y001613D01*
X045075Y001629D01*
X045032Y001648D01*
X044991Y001671D01*
X044952Y001697D01*
X044916Y001726D01*
X044882Y001759D01*
X044851Y001794D01*
X044823Y001831D01*
X044799Y001871D01*
X044778Y001913D01*
X044760Y001956D01*
X044747Y002001D01*
X044737Y002047D01*
X044731Y002093D01*
X044729Y002140D01*
X018358Y037385D02*
X018360Y037432D01*
X018366Y037478D01*
X018376Y037524D01*
X018389Y037569D01*
X018407Y037612D01*
X018428Y037654D01*
X018452Y037694D01*
X018480Y037731D01*
X018511Y037766D01*
X018545Y037799D01*
X018581Y037828D01*
X018620Y037854D01*
X018661Y037877D01*
X018704Y037896D01*
X018748Y037912D01*
X018793Y037924D01*
X018839Y037932D01*
X018886Y037936D01*
X018932Y037936D01*
X018979Y037932D01*
X019025Y037924D01*
X019070Y037912D01*
X019114Y037896D01*
X019157Y037877D01*
X019198Y037854D01*
X019237Y037828D01*
X019273Y037799D01*
X019307Y037766D01*
X019338Y037731D01*
X019366Y037694D01*
X019390Y037654D01*
X019411Y037612D01*
X019429Y037569D01*
X019442Y037524D01*
X019452Y037478D01*
X019458Y037432D01*
X019460Y037385D01*
X019458Y037338D01*
X019452Y037292D01*
X019442Y037246D01*
X019429Y037201D01*
X019411Y037158D01*
X019390Y037116D01*
X019366Y037076D01*
X019338Y037039D01*
X019307Y037004D01*
X019273Y036971D01*
X019237Y036942D01*
X019198Y036916D01*
X019157Y036893D01*
X019114Y036874D01*
X019070Y036858D01*
X019025Y036846D01*
X018979Y036838D01*
X018932Y036834D01*
X018886Y036834D01*
X018839Y036838D01*
X018793Y036846D01*
X018748Y036858D01*
X018704Y036874D01*
X018661Y036893D01*
X018620Y036916D01*
X018581Y036942D01*
X018545Y036971D01*
X018511Y037004D01*
X018480Y037039D01*
X018452Y037076D01*
X018428Y037116D01*
X018407Y037158D01*
X018389Y037201D01*
X018376Y037246D01*
X018366Y037292D01*
X018360Y037338D01*
X018358Y037385D01*
X006154Y037385D02*
X006156Y037432D01*
X006162Y037478D01*
X006172Y037524D01*
X006185Y037569D01*
X006203Y037612D01*
X006224Y037654D01*
X006248Y037694D01*
X006276Y037731D01*
X006307Y037766D01*
X006341Y037799D01*
X006377Y037828D01*
X006416Y037854D01*
X006457Y037877D01*
X006500Y037896D01*
X006544Y037912D01*
X006589Y037924D01*
X006635Y037932D01*
X006682Y037936D01*
X006728Y037936D01*
X006775Y037932D01*
X006821Y037924D01*
X006866Y037912D01*
X006910Y037896D01*
X006953Y037877D01*
X006994Y037854D01*
X007033Y037828D01*
X007069Y037799D01*
X007103Y037766D01*
X007134Y037731D01*
X007162Y037694D01*
X007186Y037654D01*
X007207Y037612D01*
X007225Y037569D01*
X007238Y037524D01*
X007248Y037478D01*
X007254Y037432D01*
X007256Y037385D01*
X007254Y037338D01*
X007248Y037292D01*
X007238Y037246D01*
X007225Y037201D01*
X007207Y037158D01*
X007186Y037116D01*
X007162Y037076D01*
X007134Y037039D01*
X007103Y037004D01*
X007069Y036971D01*
X007033Y036942D01*
X006994Y036916D01*
X006953Y036893D01*
X006910Y036874D01*
X006866Y036858D01*
X006821Y036846D01*
X006775Y036838D01*
X006728Y036834D01*
X006682Y036834D01*
X006635Y036838D01*
X006589Y036846D01*
X006544Y036858D01*
X006500Y036874D01*
X006457Y036893D01*
X006416Y036916D01*
X006377Y036942D01*
X006341Y036971D01*
X006307Y037004D01*
X006276Y037039D01*
X006248Y037076D01*
X006224Y037116D01*
X006203Y037158D01*
X006185Y037201D01*
X006172Y037246D01*
X006162Y037292D01*
X006156Y037338D01*
X006154Y037385D01*
X001529Y045340D02*
X001531Y045387D01*
X001537Y045433D01*
X001547Y045479D01*
X001560Y045524D01*
X001578Y045567D01*
X001599Y045609D01*
X001623Y045649D01*
X001651Y045686D01*
X001682Y045721D01*
X001716Y045754D01*
X001752Y045783D01*
X001791Y045809D01*
X001832Y045832D01*
X001875Y045851D01*
X001919Y045867D01*
X001964Y045879D01*
X002010Y045887D01*
X002057Y045891D01*
X002103Y045891D01*
X002150Y045887D01*
X002196Y045879D01*
X002241Y045867D01*
X002285Y045851D01*
X002328Y045832D01*
X002369Y045809D01*
X002408Y045783D01*
X002444Y045754D01*
X002478Y045721D01*
X002509Y045686D01*
X002537Y045649D01*
X002561Y045609D01*
X002582Y045567D01*
X002600Y045524D01*
X002613Y045479D01*
X002623Y045433D01*
X002629Y045387D01*
X002631Y045340D01*
X002629Y045293D01*
X002623Y045247D01*
X002613Y045201D01*
X002600Y045156D01*
X002582Y045113D01*
X002561Y045071D01*
X002537Y045031D01*
X002509Y044994D01*
X002478Y044959D01*
X002444Y044926D01*
X002408Y044897D01*
X002369Y044871D01*
X002328Y044848D01*
X002285Y044829D01*
X002241Y044813D01*
X002196Y044801D01*
X002150Y044793D01*
X002103Y044789D01*
X002057Y044789D01*
X002010Y044793D01*
X001964Y044801D01*
X001919Y044813D01*
X001875Y044829D01*
X001832Y044848D01*
X001791Y044871D01*
X001752Y044897D01*
X001716Y044926D01*
X001682Y044959D01*
X001651Y044994D01*
X001623Y045031D01*
X001599Y045071D01*
X001578Y045113D01*
X001560Y045156D01*
X001547Y045201D01*
X001537Y045247D01*
X001531Y045293D01*
X001529Y045340D01*
X044829Y045340D02*
X044831Y045387D01*
X044837Y045433D01*
X044847Y045479D01*
X044860Y045524D01*
X044878Y045567D01*
X044899Y045609D01*
X044923Y045649D01*
X044951Y045686D01*
X044982Y045721D01*
X045016Y045754D01*
X045052Y045783D01*
X045091Y045809D01*
X045132Y045832D01*
X045175Y045851D01*
X045219Y045867D01*
X045264Y045879D01*
X045310Y045887D01*
X045357Y045891D01*
X045403Y045891D01*
X045450Y045887D01*
X045496Y045879D01*
X045541Y045867D01*
X045585Y045851D01*
X045628Y045832D01*
X045669Y045809D01*
X045708Y045783D01*
X045744Y045754D01*
X045778Y045721D01*
X045809Y045686D01*
X045837Y045649D01*
X045861Y045609D01*
X045882Y045567D01*
X045900Y045524D01*
X045913Y045479D01*
X045923Y045433D01*
X045929Y045387D01*
X045931Y045340D01*
X045929Y045293D01*
X045923Y045247D01*
X045913Y045201D01*
X045900Y045156D01*
X045882Y045113D01*
X045861Y045071D01*
X045837Y045031D01*
X045809Y044994D01*
X045778Y044959D01*
X045744Y044926D01*
X045708Y044897D01*
X045669Y044871D01*
X045628Y044848D01*
X045585Y044829D01*
X045541Y044813D01*
X045496Y044801D01*
X045450Y044793D01*
X045403Y044789D01*
X045357Y044789D01*
X045310Y044793D01*
X045264Y044801D01*
X045219Y044813D01*
X045175Y044829D01*
X045132Y044848D01*
X045091Y044871D01*
X045052Y044897D01*
X045016Y044926D01*
X044982Y044959D01*
X044951Y044994D01*
X044923Y045031D01*
X044899Y045071D01*
X044878Y045113D01*
X044860Y045156D01*
X044847Y045201D01*
X044837Y045247D01*
X044831Y045293D01*
X044829Y045340D01*
D11*
X030564Y022870D03*
X029856Y022870D03*
X029176Y022869D03*
X028468Y022869D03*
X030419Y010889D03*
X031128Y010889D03*
X032581Y010889D03*
X033290Y010889D03*
X033590Y002989D03*
X032881Y002989D03*
X031390Y002989D03*
X030681Y002989D03*
D12*
X034220Y028439D03*
D13*
X033649Y028439D03*
X033649Y028046D03*
X033649Y028833D03*
X034791Y028833D03*
X034791Y028439D03*
X034791Y028046D03*
D14*
X033710Y032516D03*
X033710Y033224D03*
X032835Y015044D03*
X032235Y015043D03*
X031635Y015043D03*
X031635Y014335D03*
X032235Y014334D03*
X032835Y014335D03*
X030935Y014335D03*
X030935Y015043D03*
X030105Y015054D03*
X030105Y014345D03*
X029835Y007043D03*
X029835Y006334D03*
X030535Y006335D03*
X031235Y006335D03*
X031925Y006334D03*
X031925Y007043D03*
X031235Y007043D03*
X030535Y007043D03*
X032625Y007043D03*
X032625Y006334D03*
D15*
X017178Y008493D03*
X015603Y008493D03*
X015603Y016393D03*
X017178Y016393D03*
X017217Y024247D03*
X015642Y024247D03*
X015642Y032147D03*
X017217Y032147D03*
D16*
X009076Y006070D03*
X007344Y006070D03*
M02*
