G75*
G70*
%OFA0B0*%
%FSLAX24Y24*%
%IPPOS*%
%LPD*%
%AMOC8*
5,1,8,0,0,1.08239X$1,22.5*
%
%ADD10C,0.0060*%
%ADD11C,0.0080*%
%ADD12R,0.0157X0.0055*%
%ADD13C,0.0040*%
D10*
X028704Y024407D02*
X028940Y024407D01*
X028940Y024880D02*
X028704Y024880D01*
X029392Y025209D02*
X029628Y025209D01*
X029628Y025681D02*
X029392Y025681D01*
X030092Y024881D02*
X030328Y024881D01*
X030328Y024409D02*
X030092Y024409D01*
X033630Y029624D02*
X033630Y029679D01*
X033630Y029624D02*
X034811Y029624D01*
X034811Y029679D01*
X034811Y030750D02*
X034811Y030805D01*
X033630Y030805D01*
X033630Y030750D01*
X033474Y034527D02*
X033474Y034763D01*
X033946Y034763D02*
X033946Y034527D01*
X033071Y016583D02*
X033071Y016347D01*
X032598Y016347D02*
X032598Y016583D01*
X032471Y016581D02*
X032471Y016345D01*
X031998Y016345D02*
X031998Y016581D01*
X031871Y016582D02*
X031871Y016346D01*
X031399Y016346D02*
X031399Y016582D01*
X031171Y016582D02*
X031171Y016346D01*
X030699Y016346D02*
X030699Y016582D01*
X030341Y016593D02*
X030341Y016357D01*
X029868Y016357D02*
X029868Y016593D01*
X030656Y012900D02*
X030892Y012900D01*
X030892Y012428D02*
X030656Y012428D01*
X032817Y012428D02*
X033053Y012428D01*
X033053Y012900D02*
X032817Y012900D01*
X032861Y008581D02*
X032861Y008345D01*
X032388Y008345D02*
X032388Y008581D01*
X032161Y008581D02*
X032161Y008345D01*
X031688Y008345D02*
X031688Y008581D01*
X031471Y008582D02*
X031471Y008346D01*
X030999Y008346D02*
X030999Y008582D01*
X030771Y008582D02*
X030771Y008346D01*
X030299Y008346D02*
X030299Y008582D01*
X030071Y008581D02*
X030071Y008345D01*
X029598Y008345D02*
X029598Y008581D01*
X030917Y005000D02*
X031153Y005000D01*
X031153Y004528D02*
X030917Y004528D01*
X033117Y004528D02*
X033353Y004528D01*
X033353Y005000D02*
X033117Y005000D01*
D11*
X024372Y019206D02*
X024562Y019124D01*
X024748Y019033D01*
X024930Y018933D01*
X025106Y018825D01*
X025277Y018708D01*
X025442Y018583D01*
X025601Y018449D01*
X025753Y018309D01*
X025898Y018161D01*
X026036Y018006D01*
X026165Y017844D01*
X026287Y017677D01*
X026401Y017503D01*
X026505Y017325D01*
X026601Y017141D01*
X026688Y016953D01*
X026766Y016761D01*
X026834Y016565D01*
X026893Y016366D01*
X026941Y016165D01*
X026980Y015961D01*
X027009Y015756D01*
X027028Y015550D01*
X027036Y015343D01*
X027035Y015136D01*
X027023Y014929D01*
X027002Y014723D01*
X026970Y014518D01*
X026928Y014315D01*
X026877Y014114D01*
X026816Y013917D01*
X026745Y013722D01*
X026664Y013531D01*
X026575Y013344D01*
X026476Y013162D01*
X026369Y012985D01*
X026253Y012813D01*
X026129Y012647D01*
X025997Y012487D01*
X025857Y012334D01*
X025710Y012188D01*
X025556Y012050D01*
X025396Y011919D01*
X025229Y011796D01*
X025056Y011681D01*
X024878Y011575D01*
X024695Y011478D01*
X024508Y011390D01*
X024316Y011311D01*
X024121Y011241D01*
X023923Y011181D01*
X023722Y011131D01*
X023519Y011091D01*
X023314Y011061D01*
X023108Y011040D01*
X022901Y011030D01*
X022693Y011030D01*
X022486Y011040D01*
X022280Y011061D01*
X022075Y011091D01*
X021872Y011131D01*
X021671Y011181D01*
X021473Y011241D01*
X021278Y011311D01*
X021086Y011390D01*
X020899Y011478D01*
X020716Y011575D01*
X020538Y011681D01*
X020365Y011796D01*
X020198Y011919D01*
X020038Y012050D01*
X019884Y012188D01*
X019737Y012334D01*
X019597Y012487D01*
X019465Y012647D01*
X019341Y012813D01*
X019225Y012985D01*
X019118Y013162D01*
X019019Y013344D01*
X018930Y013531D01*
X018849Y013722D01*
X018778Y013917D01*
X018717Y014114D01*
X018666Y014315D01*
X018624Y014518D01*
X018592Y014723D01*
X018571Y014929D01*
X018559Y015136D01*
X018558Y015343D01*
X018566Y015550D01*
X018585Y015756D01*
X018614Y015961D01*
X018653Y016165D01*
X018701Y016366D01*
X018760Y016565D01*
X018828Y016761D01*
X018906Y016953D01*
X018993Y017141D01*
X019089Y017325D01*
X019193Y017503D01*
X019307Y017677D01*
X019429Y017844D01*
X019558Y018006D01*
X019696Y018161D01*
X019841Y018309D01*
X019993Y018449D01*
X020152Y018583D01*
X020317Y018708D01*
X020488Y018825D01*
X020664Y018933D01*
X020846Y019033D01*
X021032Y019124D01*
X021222Y019206D01*
X021223Y019206D02*
X021223Y020387D01*
X024372Y020387D01*
X024372Y019206D01*
X017296Y018739D02*
X015485Y018739D01*
X015485Y018680D01*
X016154Y018562D02*
X016154Y017774D01*
X015485Y017656D02*
X015485Y017597D01*
X017296Y017597D01*
X017296Y017656D01*
X017296Y018680D02*
X017296Y018739D01*
X017335Y025451D02*
X015524Y025451D01*
X015524Y025510D01*
X016194Y025629D02*
X016194Y026416D01*
X015524Y026534D02*
X015524Y026593D01*
X017335Y026593D01*
X017335Y026534D01*
X017335Y025510D02*
X017335Y025451D01*
X017335Y033351D02*
X015524Y033351D01*
X015524Y033410D01*
X016194Y033529D02*
X016194Y034316D01*
X015524Y034434D02*
X015524Y034493D01*
X017335Y034493D01*
X017335Y034434D01*
X017335Y033410D02*
X017335Y033351D01*
X017296Y010839D02*
X015485Y010839D01*
X015485Y010780D01*
X016154Y010662D02*
X016154Y009874D01*
X015485Y009756D02*
X015485Y009697D01*
X017296Y009697D01*
X017296Y009756D01*
X017296Y010780D02*
X017296Y010839D01*
X007297Y008139D02*
X007297Y007351D01*
X007297Y007745D02*
X006757Y007351D01*
X006757Y008139D01*
X007297Y007745D01*
D12*
X033708Y029651D03*
D13*
X007900Y006995D02*
X006120Y006995D01*
X006120Y008495D02*
X007900Y008495D01*
M02*
