%
M48
M72
T01C0.0197
T02C0.0276
T03C0.0320
T04C0.0360
T05C0.0394
T06C0.0400
T07C0.0512
T08C0.0520
T09C0.0551
T10C0.0710
T11C0.0900
T12C0.1102
T13C0.1260
T14C0.1300
%
T01
X10010Y7045
X17810Y6445
X23610Y5445
X30205Y4864
X30210Y6345
X30605Y7664
X31505Y7664
X30905Y9364
X30905Y9964
X30610Y12045
X29805Y12764
X30205Y14964
X30905Y15664
X31605Y15664
X33010Y15645
X33705Y16464
X33705Y18664
X36705Y19064
X36805Y18464
X34710Y22645
X34010Y22345
X33310Y23045
X32810Y23045
X33510Y24345
X34010Y24345
X34610Y24545
X33810Y25345
X33810Y26445
X32910Y26945
X32910Y27745
X33610Y29345
X32610Y31145
X33010Y33745
X33510Y35445
X29510Y34645
X29410Y35445
X27910Y37145
X27110Y37345
X25312Y37943
X26510Y39545
X22510Y34945
X26510Y32945
X35510Y26145
X35610Y25545
X36640Y24035
X39010Y25645
X39010Y26945
X38510Y26945
X39510Y24645
X42310Y28445
X30605Y17964
X30905Y17264
X33805Y12764
X33305Y10264
X33710Y8145
X33305Y7864
X34105Y4864
X36705Y10264
X36705Y10864
X42510Y47545
T02
X30517Y25332
X28517Y25332
X27054Y7015
X26054Y7015
X22766Y3675
X21766Y3675
X18180Y3901
X18180Y2901
X9696Y3439
X8696Y3439
T03
X39635Y7314
X39635Y8314
X39635Y9314
X39635Y10314
X40635Y9814
X40635Y8814
X40635Y7814
X40635Y6814
X44725Y6964
X44725Y5964
X44725Y10164
X44725Y11164
X44725Y14464
X44725Y15464
X44725Y18664
X44725Y19664
X40635Y18314
X40635Y17314
X40635Y16314
X40635Y15314
X39635Y15814
X39635Y16814
X39635Y17814
X39635Y18814
T04
X41567Y25247
X42347Y25247
X42347Y26231
X41567Y26231
T05
X22468Y37513
X20468Y37513
X21468Y35513
T06
X23522Y35514
X23522Y36514
X23522Y37514
X23522Y38514
X18909Y36995
X18909Y35995
X18909Y34995
X18909Y33995
X18909Y32995
X18909Y31995
X18909Y30995
X18909Y29995
X18909Y28995
X18909Y27995
X18909Y26995
X18909Y25995
X18909Y24995
X18909Y23995
X18909Y22995
X18909Y21995
X23326Y22729
X23330Y23655
X23330Y25435
X25890Y25435
X25890Y23655
X25886Y22729
X25886Y20949
X23326Y20949
X27170Y27193
X28950Y27193
X28950Y29753
X28897Y30959
X29820Y30965
X31600Y30965
X31600Y33525
X29820Y33525
X28897Y33519
X27117Y33519
X27117Y30959
X27170Y29753
X34910Y21945
X35910Y21945
X36910Y21945
X37910Y21945
X38910Y21945
X39910Y21945
X40910Y21945
X41910Y21945
X42910Y21945
X39454Y28214
X38454Y28214
X37454Y28214
X36454Y28214
X36450Y29615
X37450Y29615
X38450Y29615
X41360Y29695
X41360Y30695
X41360Y31695
X42988Y33120
X42988Y34210
X42988Y35301
X42988Y36392
X44106Y36935
X44106Y35844
X44106Y34758
X44106Y33667
X42988Y37482
X36456Y36349
X35456Y36349
X35456Y35349
X35456Y34349
X35456Y33349
X35456Y32349
X36456Y32349
X36456Y33349
X36456Y34349
X36456Y35349
X28110Y12945
X28110Y11945
X28110Y10945
X28110Y9945
T07
X22797Y11725
X22797Y19599
X41985Y20214
X41985Y13914
X41985Y11714
X41985Y5414
T08
X14227Y10221
X14227Y14941
X14227Y18100
X14227Y22820
X14217Y25964
X14217Y30684
X14232Y33840
X14232Y38560
X9432Y38560
X9432Y33840
X9417Y30684
X9417Y25964
X9427Y22820
X9427Y18100
X9427Y14941
X9427Y10221
T09
X6601Y6264
X4601Y6264
X4425Y10582
X4425Y12582
X4425Y14582
X4431Y18444
X4431Y20444
X4431Y22444
X4449Y26320
X4449Y28320
X4449Y30320
X4449Y34204
X4449Y36204
X4449Y38204
X5968Y44869
X7968Y44869
X10665Y44869
X12665Y44869
X15430Y44869
X17430Y44869
X20121Y44869
X22121Y44869
X25236Y44888
X27236Y44888
X30000Y44869
X32000Y44869
X34712Y44849
X36712Y44849
X39445Y44869
X41445Y44869
T10
X15062Y36200
X15047Y28324
X15057Y20460
X15057Y12581
T11
X43417Y23369
X43417Y28109
T12
X2080Y3915
X6705Y9633
X18909Y9633
X45280Y3915
X18909Y39160
X6705Y39160
X2080Y47115
X45380Y47115
T13
X43135Y19314
X43135Y14814
X43135Y10814
X43135Y6314
T14
X43547Y30380
X43547Y40222
M30
