G75*
G70*
%OFA0B0*%
%FSLAX24Y24*%
%IPPOS*%
%LPD*%
%AMOC8*
5,1,8,0,0,1.08239X$1,22.5*
%
%ADD10C,0.0060*%
%ADD11C,0.0030*%
%ADD12C,0.0070*%
%ADD13C,0.0020*%
%ADD14C,0.0080*%
%ADD15R,0.0300X0.0340*%
%ADD16C,0.0100*%
%ADD17C,0.0050*%
%ADD18C,0.0157*%
D10*
X002440Y004902D02*
X002547Y004795D01*
X002440Y004902D02*
X002440Y005116D01*
X002547Y005222D01*
X002974Y005222D01*
X003081Y005116D01*
X003081Y004902D01*
X002974Y004795D01*
X002974Y005440D02*
X003081Y005547D01*
X003081Y005867D01*
X002440Y005867D01*
X002440Y005547D01*
X002547Y005440D01*
X002974Y005440D01*
X003081Y006729D02*
X002654Y006729D01*
X002440Y006942D01*
X002654Y007156D01*
X003081Y007156D01*
X003081Y007480D02*
X002760Y007801D01*
X002760Y007374D01*
X002440Y007480D02*
X003081Y007480D01*
X002974Y008018D02*
X003081Y008125D01*
X003081Y008338D01*
X002974Y008445D01*
X002974Y008018D02*
X002867Y008018D01*
X002440Y008445D01*
X002440Y008018D01*
X007633Y008218D02*
X007869Y008218D01*
X007869Y007745D02*
X007633Y007745D01*
X008748Y007739D02*
X008984Y007739D01*
X008984Y008211D02*
X008748Y008211D01*
X009431Y007555D02*
X010851Y007555D01*
X010713Y007740D02*
X010477Y007740D01*
X010477Y008212D02*
X010713Y008212D01*
X012827Y010331D02*
X012827Y012081D01*
X012577Y012081D02*
X013077Y013081D01*
X012827Y013081D02*
X012827Y014831D01*
X013577Y014831D01*
X015877Y015831D02*
X007777Y015831D01*
X007777Y009331D01*
X015877Y009331D01*
X015877Y015831D01*
X015877Y017210D02*
X015877Y023710D01*
X007777Y023710D01*
X007777Y017210D01*
X015877Y017210D01*
X013577Y018210D02*
X012827Y018210D01*
X012827Y019960D01*
X012577Y019960D02*
X013077Y020960D01*
X012827Y020960D02*
X012827Y022710D01*
X013577Y022710D01*
X015867Y025074D02*
X015867Y031574D01*
X007767Y031574D01*
X007767Y025074D01*
X015867Y025074D01*
X013567Y026074D02*
X012817Y026074D01*
X012817Y027824D01*
X012567Y027824D02*
X013067Y028824D01*
X012817Y028824D02*
X012817Y030574D01*
X013567Y030574D01*
X015882Y032950D02*
X015882Y039450D01*
X007782Y039450D01*
X007782Y032950D01*
X015882Y032950D01*
X013582Y033950D02*
X012832Y033950D01*
X012832Y035700D01*
X012582Y035700D02*
X013082Y036700D01*
X012832Y036700D02*
X012832Y038450D01*
X013582Y038450D01*
X011082Y036200D02*
X010082Y036200D01*
X009082Y035200D01*
X009332Y035450D02*
X009332Y034450D01*
X009332Y036950D02*
X009332Y037950D01*
X007731Y041114D02*
X007624Y041114D01*
X007197Y041541D01*
X007090Y041541D01*
X007090Y041757D02*
X007090Y041971D01*
X007090Y041864D02*
X007731Y041864D01*
X007731Y041971D02*
X007731Y041757D01*
X007731Y041541D02*
X007731Y041114D01*
X007624Y042188D02*
X007197Y042188D01*
X007090Y042295D01*
X007090Y042615D01*
X007731Y042615D01*
X007731Y042295D01*
X007624Y042188D01*
X006127Y043106D02*
X006127Y043342D01*
X005654Y043342D02*
X005654Y043106D01*
X005141Y040735D02*
X004500Y040735D01*
X004714Y040735D02*
X004714Y040415D01*
X004820Y040308D01*
X005034Y040308D01*
X005141Y040415D01*
X005141Y040735D01*
X004714Y040522D02*
X004500Y040308D01*
X004607Y040091D02*
X005034Y039664D01*
X004607Y039664D01*
X004500Y039770D01*
X004500Y039984D01*
X004607Y040091D01*
X005034Y040091D01*
X005141Y039984D01*
X005141Y039770D01*
X005034Y039664D01*
X003941Y039945D02*
X003705Y039945D01*
X003705Y040417D02*
X003941Y040417D01*
X010354Y043112D02*
X010354Y043348D01*
X010827Y043348D02*
X010827Y043112D01*
X011790Y042735D02*
X011790Y042415D01*
X011897Y042308D01*
X012324Y042308D01*
X012431Y042415D01*
X012431Y042735D01*
X011790Y042735D01*
X011790Y042091D02*
X011790Y041877D01*
X011790Y041984D02*
X012431Y041984D01*
X012431Y042091D02*
X012431Y041877D01*
X012110Y041661D02*
X012110Y041341D01*
X012004Y041234D01*
X011897Y041234D01*
X011790Y041341D01*
X011790Y041554D01*
X011897Y041661D01*
X012110Y041661D01*
X012324Y041447D01*
X012431Y041234D01*
X015054Y043199D02*
X015054Y043436D01*
X015527Y043436D02*
X015527Y043199D01*
X016380Y042635D02*
X016380Y042315D01*
X016487Y042208D01*
X016914Y042208D01*
X017021Y042315D01*
X017021Y042635D01*
X016380Y042635D01*
X016380Y041991D02*
X016380Y041777D01*
X016380Y041884D02*
X017021Y041884D01*
X017021Y041991D02*
X017021Y041777D01*
X017021Y041561D02*
X016700Y041561D01*
X016807Y041347D01*
X016807Y041241D01*
X016700Y041134D01*
X016487Y041134D01*
X016380Y041241D01*
X016380Y041454D01*
X016487Y041561D01*
X017021Y041561D02*
X017021Y041134D01*
X019758Y043209D02*
X019758Y043446D01*
X020230Y043446D02*
X020230Y043209D01*
X021150Y042665D02*
X021150Y042345D01*
X021257Y042238D01*
X021684Y042238D01*
X021791Y042345D01*
X021791Y042665D01*
X021150Y042665D01*
X021150Y042021D02*
X021150Y041807D01*
X021150Y041914D02*
X021791Y041914D01*
X021791Y042021D02*
X021791Y041807D01*
X021470Y041591D02*
X021470Y041164D01*
X021150Y041271D02*
X021791Y041271D01*
X021470Y041591D01*
X024852Y043096D02*
X024852Y043332D01*
X025324Y043332D02*
X025324Y043096D01*
X026120Y042525D02*
X026120Y042205D01*
X026227Y042098D01*
X026654Y042098D01*
X026761Y042205D01*
X026761Y042525D01*
X026120Y042525D01*
X026120Y041881D02*
X026120Y041667D01*
X026120Y041774D02*
X026761Y041774D01*
X026761Y041881D02*
X026761Y041667D01*
X026654Y041451D02*
X026761Y041344D01*
X026761Y041131D01*
X026654Y041024D01*
X026547Y041024D01*
X026440Y041131D01*
X026334Y041024D01*
X026227Y041024D01*
X026120Y041131D01*
X026120Y041344D01*
X026227Y041451D01*
X026440Y041237D02*
X026440Y041131D01*
X026128Y039181D02*
X025892Y039181D01*
X025892Y038709D02*
X026128Y038709D01*
X028948Y036497D02*
X029184Y036497D01*
X029184Y036024D02*
X028948Y036024D01*
X030640Y035308D02*
X030747Y035415D01*
X030640Y035308D02*
X030640Y035095D01*
X030747Y034988D01*
X030854Y034988D01*
X030960Y035095D01*
X030960Y035308D01*
X031067Y035415D01*
X031174Y035415D01*
X031281Y035308D01*
X031281Y035095D01*
X031174Y034988D01*
X030960Y034771D02*
X030960Y034344D01*
X030640Y034450D02*
X031281Y034450D01*
X030960Y034771D01*
X033140Y034905D02*
X033247Y035011D01*
X033674Y035011D01*
X033567Y034905D02*
X033567Y035118D01*
X033460Y035336D02*
X033567Y035442D01*
X033567Y035656D01*
X033460Y035763D01*
X033247Y035763D01*
X033140Y035656D01*
X033140Y035442D01*
X033247Y035336D01*
X033460Y035336D01*
X033140Y035979D02*
X033140Y036192D01*
X033140Y036086D02*
X033781Y036086D01*
X033781Y036192D01*
X033674Y036410D02*
X033781Y036517D01*
X033781Y036730D01*
X033674Y036837D01*
X033567Y036837D01*
X033460Y036730D01*
X033460Y036517D01*
X033354Y036410D01*
X033247Y036410D01*
X033140Y036517D01*
X033140Y036730D01*
X033247Y036837D01*
X033247Y037699D02*
X033140Y037806D01*
X033140Y038126D01*
X032927Y038126D02*
X033567Y038126D01*
X033567Y037806D01*
X033460Y037699D01*
X033247Y037699D01*
X033140Y038344D02*
X033567Y038771D01*
X033781Y038988D02*
X033781Y039415D01*
X033140Y039415D01*
X033140Y038988D01*
X033140Y038771D02*
X033567Y038344D01*
X033460Y039202D02*
X033460Y039415D01*
X031664Y041154D02*
X031771Y041261D01*
X031771Y041474D01*
X031664Y041581D01*
X031771Y041797D02*
X031771Y042011D01*
X031771Y041904D02*
X031130Y041904D01*
X031130Y042011D02*
X031130Y041797D01*
X031130Y041581D02*
X031557Y041154D01*
X031664Y041154D01*
X031130Y041154D02*
X031130Y041581D01*
X031237Y042228D02*
X031664Y042228D01*
X031771Y042335D01*
X031771Y042655D01*
X031130Y042655D01*
X031130Y042335D01*
X031237Y042228D01*
X030114Y043086D02*
X030114Y043322D01*
X029642Y043322D02*
X029642Y043086D01*
X034452Y043082D02*
X034452Y043318D01*
X034924Y043318D02*
X034924Y043082D01*
X035770Y042685D02*
X035770Y042365D01*
X035877Y042258D01*
X036304Y042258D01*
X036411Y042365D01*
X036411Y042685D01*
X035770Y042685D01*
X035770Y042041D02*
X035770Y041827D01*
X035770Y041934D02*
X036411Y041934D01*
X036411Y042041D02*
X036411Y041827D01*
X036197Y041611D02*
X036411Y041397D01*
X035770Y041397D01*
X035770Y041184D02*
X035770Y041611D01*
X039042Y043106D02*
X039042Y043342D01*
X039514Y043342D02*
X039514Y043106D01*
X040320Y042665D02*
X040320Y042345D01*
X040427Y042238D01*
X040854Y042238D01*
X040961Y042345D01*
X040961Y042665D01*
X040320Y042665D01*
X040320Y042021D02*
X040320Y041807D01*
X040320Y041914D02*
X040961Y041914D01*
X040961Y042021D02*
X040961Y041807D01*
X040854Y041591D02*
X040961Y041484D01*
X040961Y041271D01*
X040854Y041164D01*
X040427Y041591D01*
X040320Y041484D01*
X040320Y041271D01*
X040427Y041164D01*
X040854Y041164D01*
X040854Y041591D02*
X040427Y041591D01*
X042917Y041775D02*
X042917Y042416D01*
X043238Y042416D01*
X043344Y042309D01*
X043344Y042095D01*
X043238Y041989D01*
X042917Y041989D01*
X043131Y041989D02*
X043344Y041775D01*
X043562Y041882D02*
X043669Y041775D01*
X043882Y041775D01*
X043989Y041882D01*
X043989Y041989D01*
X043882Y042095D01*
X043669Y042095D01*
X043562Y042202D01*
X043562Y042309D01*
X043669Y042416D01*
X043882Y042416D01*
X043989Y042309D01*
X044206Y042309D02*
X044313Y042416D01*
X044527Y042416D01*
X044633Y042309D01*
X044633Y042202D01*
X044206Y041775D01*
X044633Y041775D01*
X044851Y041882D02*
X044958Y041775D01*
X045171Y041775D01*
X045278Y041882D01*
X045278Y041989D01*
X045171Y042095D01*
X045064Y042095D01*
X045171Y042095D02*
X045278Y042202D01*
X045278Y042309D01*
X045171Y042416D01*
X044958Y042416D01*
X044851Y042309D01*
X045495Y042309D02*
X045602Y042416D01*
X045816Y042416D01*
X045923Y042309D01*
X045923Y042202D01*
X045495Y041775D01*
X045923Y041775D01*
X041172Y037118D02*
X040936Y037118D01*
X040936Y036646D02*
X041172Y036646D01*
X040793Y036459D02*
X040393Y036459D01*
X040153Y036459D01*
X039753Y036459D01*
X039655Y036653D02*
X039891Y036653D01*
X040153Y036459D02*
X040155Y036438D01*
X040160Y036418D01*
X040169Y036399D01*
X040181Y036382D01*
X040196Y036367D01*
X040213Y036355D01*
X040232Y036346D01*
X040252Y036341D01*
X040273Y036339D01*
X040294Y036341D01*
X040314Y036346D01*
X040333Y036355D01*
X040350Y036367D01*
X040365Y036382D01*
X040377Y036399D01*
X040386Y036418D01*
X040391Y036438D01*
X040393Y036459D01*
X039891Y037125D02*
X039655Y037125D01*
X038609Y036007D02*
X038609Y035771D01*
X038137Y035771D02*
X038137Y036007D01*
X038137Y034707D02*
X038137Y034471D01*
X038609Y034471D02*
X038609Y034707D01*
X038609Y033507D02*
X038609Y033271D01*
X038137Y033271D02*
X038137Y033507D01*
X039753Y032519D02*
X040793Y032519D01*
X041773Y033269D02*
X042173Y033269D01*
X041428Y028781D02*
X041192Y028781D01*
X041192Y028309D02*
X041428Y028309D01*
X040419Y026946D02*
X040183Y026946D01*
X040183Y026473D02*
X040419Y026473D01*
X040422Y026244D02*
X040186Y026244D01*
X040186Y025771D02*
X040422Y025771D01*
X039825Y024878D02*
X037745Y024878D01*
X037745Y024788D01*
X037745Y024388D02*
X037745Y024288D01*
X037745Y023888D02*
X037745Y023788D01*
X037745Y023388D02*
X037745Y023288D01*
X037745Y022888D02*
X037745Y022798D01*
X038665Y022798D01*
X038905Y022798D01*
X039825Y022798D01*
X039825Y022888D01*
X039825Y023288D02*
X039825Y023388D01*
X039825Y023788D02*
X039825Y023888D01*
X039825Y024288D02*
X039825Y024388D01*
X039825Y024788D02*
X039825Y024878D01*
X038905Y022798D02*
X038903Y022819D01*
X038898Y022839D01*
X038889Y022858D01*
X038877Y022875D01*
X038862Y022890D01*
X038845Y022902D01*
X038826Y022911D01*
X038806Y022916D01*
X038785Y022918D01*
X038764Y022916D01*
X038744Y022911D01*
X038725Y022902D01*
X038708Y022890D01*
X038693Y022875D01*
X038681Y022858D01*
X038672Y022839D01*
X038667Y022819D01*
X038665Y022798D01*
X036846Y023127D02*
X036846Y023363D01*
X036374Y023363D02*
X036374Y023127D01*
X036257Y023128D02*
X036257Y023364D01*
X035785Y023364D02*
X035785Y023128D01*
X035786Y024013D02*
X035936Y024013D01*
X035936Y024163D01*
X036596Y025353D02*
X036986Y025353D01*
X036712Y026814D02*
X036475Y026814D01*
X036475Y027286D02*
X036712Y027286D01*
X035936Y026853D02*
X035786Y026853D01*
X035936Y026853D02*
X035936Y026703D01*
X034996Y027523D02*
X034996Y027913D01*
X034028Y027809D02*
X033792Y027809D01*
X033792Y028281D02*
X034028Y028281D01*
X033898Y028896D02*
X033898Y029132D01*
X034371Y029132D02*
X034371Y028896D01*
X034550Y028892D02*
X034550Y029129D01*
X035023Y029129D02*
X035023Y028892D01*
X033246Y026853D02*
X033096Y026853D01*
X033096Y026703D01*
X033276Y026523D02*
X033426Y026673D01*
X032446Y028101D02*
X032446Y028337D01*
X031974Y028337D02*
X031974Y028101D01*
X030015Y028114D02*
X030015Y028350D01*
X029542Y028350D02*
X029542Y028114D01*
X028228Y026881D02*
X027992Y026881D01*
X027992Y026409D02*
X028228Y026409D01*
X027153Y026320D02*
X027153Y026084D01*
X026680Y026084D02*
X026680Y026320D01*
X026067Y027123D02*
X026067Y027337D01*
X026174Y027230D02*
X025747Y027230D01*
X025640Y027123D01*
X025854Y027554D02*
X025854Y027981D01*
X025960Y027981D02*
X025747Y027981D01*
X025640Y027875D01*
X025640Y027661D01*
X025854Y027554D02*
X025960Y027554D01*
X026067Y027661D01*
X026067Y027875D01*
X025960Y027981D01*
X026067Y028199D02*
X026067Y028519D01*
X025960Y028626D01*
X025854Y028519D01*
X025854Y028306D01*
X025747Y028199D01*
X025640Y028306D01*
X025640Y028626D01*
X025854Y028844D02*
X025854Y029271D01*
X025960Y029271D02*
X025747Y029271D01*
X025640Y029164D01*
X025640Y028950D01*
X025854Y028844D02*
X025960Y028844D01*
X026067Y028950D01*
X026067Y029164D01*
X025960Y029271D01*
X025960Y029488D02*
X025854Y029595D01*
X025854Y029915D01*
X025854Y029702D02*
X025640Y029488D01*
X025960Y029488D02*
X026174Y029488D01*
X026281Y029595D01*
X026281Y029915D01*
X025640Y029915D01*
X025747Y031344D02*
X025640Y031450D01*
X025640Y031664D01*
X025747Y031771D01*
X025747Y031988D02*
X025640Y032095D01*
X025640Y032308D01*
X025747Y032415D01*
X025960Y032308D02*
X025960Y032095D01*
X025854Y031988D01*
X025747Y031988D01*
X025960Y032308D02*
X026067Y032415D01*
X026174Y032415D01*
X026281Y032308D01*
X026281Y032095D01*
X026174Y031988D01*
X026174Y031771D02*
X026281Y031664D01*
X026281Y031450D01*
X026174Y031344D01*
X026067Y031344D01*
X025960Y031450D01*
X025854Y031344D01*
X025747Y031344D01*
X025960Y031450D02*
X025960Y031557D01*
X027892Y034009D02*
X028128Y034009D01*
X028128Y034481D02*
X027892Y034481D01*
X033392Y033481D02*
X033628Y033481D01*
X033628Y033009D02*
X033392Y033009D01*
X032446Y024723D02*
X032046Y024733D01*
X032246Y024563D02*
X032246Y024327D01*
X031774Y024327D02*
X031774Y024563D01*
X033096Y024163D02*
X033096Y024013D01*
X033246Y024013D01*
X034826Y023373D02*
X034826Y022983D01*
X037656Y019900D02*
X037892Y019900D01*
X037892Y019428D02*
X037656Y019428D01*
X037656Y019300D02*
X037892Y019300D01*
X037892Y018828D02*
X037656Y018828D01*
X037656Y018700D02*
X037892Y018700D01*
X037892Y018228D02*
X037656Y018228D01*
X037656Y018100D02*
X037892Y018100D01*
X037892Y017628D02*
X037656Y017628D01*
X037657Y017500D02*
X037893Y017500D01*
X037893Y017028D02*
X037657Y017028D01*
X037657Y016550D02*
X037893Y016550D01*
X037893Y016078D02*
X037657Y016078D01*
X037667Y015150D02*
X037903Y015150D01*
X037903Y014678D02*
X037667Y014678D01*
X037667Y014550D02*
X037903Y014550D01*
X037903Y014078D02*
X037667Y014078D01*
X035691Y015165D02*
X035691Y015401D01*
X035218Y015401D02*
X035218Y015165D01*
X034692Y015200D02*
X034456Y015200D01*
X034456Y014728D02*
X034692Y014728D01*
X035218Y016327D02*
X035218Y016563D01*
X035691Y016563D02*
X035691Y016327D01*
X035868Y016777D02*
X035868Y017013D01*
X036341Y017013D02*
X036341Y016777D01*
X036568Y016775D02*
X036568Y017011D01*
X037041Y017011D02*
X037041Y016775D01*
X035953Y019128D02*
X035717Y019128D01*
X035717Y019600D02*
X035953Y019600D01*
X028690Y022095D02*
X028690Y022315D01*
X028690Y022095D02*
X028370Y022095D01*
X028690Y022995D02*
X028690Y023215D01*
X028370Y023215D01*
X022781Y024057D02*
X022140Y024057D01*
X022140Y023844D02*
X022140Y024271D01*
X022247Y024488D02*
X022140Y024595D01*
X022140Y024808D01*
X022247Y024915D01*
X022460Y024808D02*
X022460Y024595D01*
X022354Y024488D01*
X022247Y024488D01*
X022460Y024808D02*
X022567Y024915D01*
X022674Y024915D01*
X022781Y024808D01*
X022781Y024595D01*
X022674Y024488D01*
X022567Y024271D02*
X022781Y024057D01*
X022674Y022415D02*
X022567Y022415D01*
X022460Y022308D01*
X022460Y022095D01*
X022354Y021988D01*
X022247Y021988D01*
X022140Y022095D01*
X022140Y022308D01*
X022247Y022415D01*
X022674Y022415D02*
X022781Y022308D01*
X022781Y022095D01*
X022674Y021988D01*
X022674Y021771D02*
X022781Y021664D01*
X022781Y021450D01*
X022674Y021344D01*
X022567Y021344D01*
X022140Y021771D01*
X022140Y021344D01*
X022747Y015665D02*
X022640Y015558D01*
X022640Y015345D01*
X022747Y015238D01*
X022854Y015021D02*
X022854Y014700D01*
X022960Y014594D01*
X023174Y014594D01*
X023281Y014700D01*
X023281Y015021D01*
X022640Y015021D01*
X022854Y014807D02*
X022640Y014594D01*
X022640Y014376D02*
X023067Y013949D01*
X023174Y013949D01*
X023281Y014056D01*
X023281Y014269D01*
X023174Y014376D01*
X022640Y014376D02*
X022640Y013949D01*
X022747Y013731D02*
X023174Y013304D01*
X022747Y013304D01*
X022640Y013411D01*
X022640Y013625D01*
X022747Y013731D01*
X023174Y013731D01*
X023281Y013625D01*
X023281Y013411D01*
X023174Y013304D01*
X023174Y013087D02*
X023281Y012980D01*
X023281Y012767D01*
X023174Y012660D01*
X023067Y012660D01*
X022960Y012767D01*
X022854Y012660D01*
X022747Y012660D01*
X022640Y012767D01*
X022640Y012980D01*
X022747Y013087D01*
X022960Y012873D02*
X022960Y012767D01*
X023174Y012442D02*
X023281Y012336D01*
X023281Y012122D01*
X023174Y012015D01*
X023067Y012015D01*
X022640Y012442D01*
X022640Y012015D01*
X023174Y015238D02*
X023281Y015345D01*
X023281Y015558D01*
X023174Y015665D01*
X022747Y015665D01*
X026492Y008981D02*
X026728Y008981D01*
X026728Y008509D02*
X026492Y008509D01*
X023846Y004763D02*
X023846Y004527D01*
X023374Y004527D02*
X023374Y004763D01*
X018576Y005045D02*
X017156Y005045D01*
X017002Y004493D02*
X017002Y004257D01*
X016530Y004257D02*
X016530Y004493D01*
X016228Y003181D02*
X015992Y003181D01*
X015992Y002709D02*
X016228Y002709D01*
X017156Y006905D02*
X018576Y006905D01*
X018684Y007139D02*
X018448Y007139D01*
X018448Y007611D02*
X018684Y007611D01*
X017284Y007611D02*
X017048Y007611D01*
X017048Y007839D02*
X017284Y007839D01*
X017284Y008311D02*
X017048Y008311D01*
X017048Y007139D02*
X017284Y007139D01*
X013577Y010331D02*
X012827Y010331D01*
X011077Y012581D02*
X010077Y012581D01*
X009077Y011581D01*
X009327Y011831D02*
X009327Y010831D01*
X009327Y013331D02*
X009327Y014331D01*
X009327Y018710D02*
X009327Y019710D01*
X009077Y019460D02*
X010077Y020460D01*
X011077Y020460D01*
X009327Y021210D02*
X009327Y022210D01*
X009317Y026574D02*
X009317Y027574D01*
X009067Y027324D02*
X010067Y028324D01*
X011067Y028324D01*
X009317Y029074D02*
X009317Y030074D01*
X005141Y032037D02*
X004500Y032037D01*
X004500Y031824D02*
X004500Y032251D01*
X004500Y032468D02*
X004714Y032682D01*
X004714Y032575D02*
X004714Y032895D01*
X004500Y032895D02*
X005141Y032895D01*
X005141Y032575D01*
X005034Y032468D01*
X004820Y032468D01*
X004714Y032575D01*
X004927Y032251D02*
X005141Y032037D01*
X003941Y032050D02*
X003705Y032050D01*
X003705Y032523D02*
X003941Y032523D01*
X004510Y024965D02*
X005151Y024965D01*
X005151Y024645D01*
X005044Y024538D01*
X004830Y024538D01*
X004724Y024645D01*
X004724Y024965D01*
X004724Y024752D02*
X004510Y024538D01*
X004510Y024321D02*
X004937Y023894D01*
X005044Y023894D01*
X005151Y024000D01*
X005151Y024214D01*
X005044Y024321D01*
X004510Y024321D02*
X004510Y023894D01*
X003938Y024166D02*
X003702Y024166D01*
X003702Y024638D02*
X003938Y024638D01*
X004490Y017085D02*
X005131Y017085D01*
X005131Y016765D01*
X005024Y016658D01*
X004810Y016658D01*
X004704Y016765D01*
X004704Y017085D01*
X004704Y016872D02*
X004490Y016658D01*
X004597Y016441D02*
X004490Y016334D01*
X004490Y016120D01*
X004597Y016014D01*
X004704Y016014D01*
X004810Y016120D01*
X004810Y016227D01*
X004810Y016120D02*
X004917Y016014D01*
X005024Y016014D01*
X005131Y016120D01*
X005131Y016334D01*
X005024Y016441D01*
X003938Y016429D02*
X003702Y016429D01*
X003702Y016901D02*
X003938Y016901D01*
X008448Y005511D02*
X008684Y005511D01*
X008684Y005039D02*
X008448Y005039D01*
X009431Y005695D02*
X010851Y005695D01*
X029140Y004009D02*
X029247Y004116D01*
X029460Y004116D01*
X029567Y004009D01*
X029567Y003902D01*
X029460Y003795D01*
X029567Y003689D01*
X029567Y003582D01*
X029460Y003475D01*
X029247Y003475D01*
X029140Y003582D01*
X029354Y003795D02*
X029460Y003795D01*
X029785Y003582D02*
X029891Y003582D01*
X029891Y003475D01*
X029785Y003475D01*
X029785Y003582D01*
X030107Y003582D02*
X030214Y003475D01*
X030427Y003475D01*
X030534Y003582D01*
X030534Y003689D01*
X030427Y003795D01*
X030320Y003795D01*
X030427Y003795D02*
X030534Y003902D01*
X030534Y004009D01*
X030427Y004116D01*
X030214Y004116D01*
X030107Y004009D01*
X030751Y004116D02*
X030751Y003689D01*
X030965Y003475D01*
X031178Y003689D01*
X031178Y004116D01*
X034427Y006680D02*
X034664Y006680D01*
X034664Y007152D02*
X034427Y007152D01*
X035168Y007115D02*
X035168Y007351D01*
X035641Y007351D02*
X035641Y007115D01*
X035641Y008277D02*
X035641Y008513D01*
X035808Y008517D02*
X035808Y008753D01*
X036281Y008753D02*
X036281Y008517D01*
X036468Y008515D02*
X036468Y008751D01*
X036941Y008751D02*
X036941Y008515D01*
X037657Y008400D02*
X037893Y008400D01*
X037893Y008828D02*
X037657Y008828D01*
X037657Y009300D02*
X037893Y009300D01*
X037893Y009428D02*
X037657Y009428D01*
X037657Y009900D02*
X037893Y009900D01*
X037892Y010028D02*
X037656Y010028D01*
X037656Y010500D02*
X037892Y010500D01*
X037892Y010628D02*
X037656Y010628D01*
X037656Y011100D02*
X037892Y011100D01*
X037892Y011228D02*
X037656Y011228D01*
X037656Y011700D02*
X037892Y011700D01*
X036553Y011700D02*
X036317Y011700D01*
X036317Y011228D02*
X036553Y011228D01*
X035168Y008513D02*
X035168Y008277D01*
X037657Y007928D02*
X037893Y007928D01*
X037893Y006700D02*
X037657Y006700D01*
X037657Y006228D02*
X037893Y006228D01*
X037883Y006000D02*
X037647Y006000D01*
X037647Y005528D02*
X037883Y005528D01*
X043640Y011975D02*
X043640Y012616D01*
X043854Y012402D01*
X044067Y012616D01*
X044067Y011975D01*
X044285Y011975D02*
X044285Y012402D01*
X044498Y012616D01*
X044712Y012402D01*
X044712Y011975D01*
X044929Y012082D02*
X044929Y012509D01*
X045036Y012616D01*
X045249Y012616D01*
X045356Y012509D01*
X045574Y012402D02*
X045787Y012616D01*
X045787Y011975D01*
X045574Y011975D02*
X046001Y011975D01*
X045356Y012082D02*
X045249Y011975D01*
X045036Y011975D01*
X044929Y012082D01*
X044712Y012295D02*
X044285Y012295D01*
X044140Y020475D02*
X044140Y021116D01*
X044354Y020902D01*
X044567Y021116D01*
X044567Y020475D01*
X044785Y020475D02*
X044785Y020902D01*
X044998Y021116D01*
X045212Y020902D01*
X045212Y020475D01*
X045429Y020582D02*
X045429Y021009D01*
X045536Y021116D01*
X045749Y021116D01*
X045856Y021009D01*
X046074Y021009D02*
X046074Y020582D01*
X046501Y021009D01*
X046501Y020582D01*
X046394Y020475D01*
X046180Y020475D01*
X046074Y020582D01*
X045856Y020582D02*
X045749Y020475D01*
X045536Y020475D01*
X045429Y020582D01*
X045212Y020795D02*
X044785Y020795D01*
X046074Y021009D02*
X046180Y021116D01*
X046394Y021116D01*
X046501Y021009D01*
X046316Y022275D02*
X045995Y022275D01*
X045995Y022916D01*
X046316Y022916D01*
X046423Y022809D01*
X046423Y022702D01*
X046316Y022595D01*
X045995Y022595D01*
X045778Y022489D02*
X045778Y022382D01*
X045671Y022275D01*
X045458Y022275D01*
X045351Y022382D01*
X045133Y022382D02*
X045133Y022916D01*
X045351Y022809D02*
X045351Y022702D01*
X045458Y022595D01*
X045671Y022595D01*
X045778Y022489D01*
X045778Y022809D02*
X045671Y022916D01*
X045458Y022916D01*
X045351Y022809D01*
X045133Y022382D02*
X045027Y022275D01*
X044813Y022275D01*
X044706Y022382D01*
X044706Y022916D01*
X046316Y022595D02*
X046423Y022489D01*
X046423Y022382D01*
X046316Y022275D01*
X020146Y036427D02*
X020146Y036663D01*
X019674Y036663D02*
X019674Y036427D01*
D11*
X022875Y039272D02*
X022937Y039210D01*
X023060Y039210D01*
X023122Y039272D01*
X023122Y039334D01*
X023060Y039395D01*
X022937Y039395D01*
X022875Y039457D01*
X022875Y039519D01*
X022937Y039580D01*
X023060Y039580D01*
X023122Y039519D01*
X023243Y039580D02*
X023243Y039210D01*
X023367Y039334D01*
X023490Y039210D01*
X023490Y039580D01*
X023612Y039580D02*
X023797Y039580D01*
X023859Y039519D01*
X023859Y039272D01*
X023797Y039210D01*
X023612Y039210D01*
X023612Y039580D01*
X023980Y039457D02*
X024103Y039580D01*
X024103Y039210D01*
X023980Y039210D02*
X024227Y039210D01*
X032101Y026920D02*
X032415Y026606D01*
X032101Y026920D01*
X032258Y026920D02*
X032258Y026606D01*
X032258Y026920D01*
X032415Y026920D02*
X032101Y026606D01*
X032415Y026920D01*
X032415Y026763D02*
X032101Y026763D01*
X032415Y026763D01*
X034625Y021333D02*
X034915Y021333D01*
X034915Y021237D02*
X034915Y021430D01*
X034915Y021135D02*
X034625Y020942D01*
X034625Y020841D02*
X034625Y020647D01*
X034625Y020744D02*
X034915Y020744D01*
X034819Y020841D01*
X034915Y020942D02*
X034625Y021135D01*
X035625Y021135D02*
X035915Y020942D01*
X035819Y020841D02*
X035915Y020744D01*
X035625Y020744D01*
X035625Y020841D02*
X035625Y020647D01*
X035625Y020942D02*
X035915Y021135D01*
X035867Y021237D02*
X035770Y021237D01*
X035722Y021285D01*
X035722Y021430D01*
X035722Y021333D02*
X035625Y021237D01*
X035625Y021430D02*
X035915Y021430D01*
X035915Y021285D01*
X035867Y021237D01*
X036875Y021285D02*
X036875Y021382D01*
X036923Y021430D01*
X037020Y021382D02*
X037020Y021285D01*
X036972Y021237D01*
X036923Y021237D01*
X036875Y021285D01*
X036923Y021135D02*
X036875Y021087D01*
X036875Y020990D01*
X036923Y020942D01*
X036875Y020841D02*
X037165Y020841D01*
X037117Y020942D02*
X037165Y020990D01*
X037165Y021087D01*
X037117Y021135D01*
X036923Y021135D01*
X037117Y021237D02*
X037165Y021285D01*
X037165Y021382D01*
X037117Y021430D01*
X037069Y021430D01*
X037020Y021382D01*
X036972Y020841D02*
X037165Y020647D01*
X037117Y020546D02*
X037165Y020498D01*
X037165Y020401D01*
X037117Y020353D01*
X037069Y020353D01*
X036875Y020546D01*
X036875Y020353D01*
X036875Y020647D02*
X037020Y020792D01*
X037875Y020841D02*
X037875Y020647D01*
X037875Y020841D02*
X038069Y020647D01*
X038117Y020647D01*
X038165Y020696D01*
X038165Y020792D01*
X038117Y020841D01*
X038117Y020942D02*
X038165Y020990D01*
X038165Y021087D01*
X038117Y021135D01*
X037923Y021135D01*
X037875Y021087D01*
X037875Y020990D01*
X037923Y020942D01*
X038117Y020942D01*
X038117Y021237D02*
X038165Y021285D01*
X038165Y021382D01*
X038117Y021430D01*
X038069Y021430D01*
X038020Y021382D01*
X038020Y021285D01*
X037972Y021237D01*
X037923Y021237D01*
X037875Y021285D01*
X037875Y021382D01*
X037923Y021430D01*
X038875Y021382D02*
X038923Y021430D01*
X038875Y021382D02*
X038875Y021285D01*
X038923Y021237D01*
X038972Y021237D01*
X039020Y021285D01*
X039020Y021382D01*
X039069Y021430D01*
X039117Y021430D01*
X039165Y021382D01*
X039165Y021285D01*
X039117Y021237D01*
X039165Y021135D02*
X039165Y021039D01*
X039165Y021087D02*
X038875Y021087D01*
X038875Y021135D02*
X038875Y021039D01*
X038875Y020939D02*
X039069Y020746D01*
X039117Y020746D01*
X039165Y020794D01*
X039165Y020891D01*
X039117Y020939D01*
X038875Y020939D02*
X038875Y020746D01*
X039875Y020647D02*
X039875Y020841D01*
X040069Y020647D01*
X040117Y020647D01*
X040165Y020696D01*
X040165Y020792D01*
X040117Y020841D01*
X040117Y020942D02*
X040165Y020990D01*
X040165Y021087D01*
X040117Y021135D01*
X040069Y021135D01*
X040020Y021087D01*
X040020Y020990D01*
X039972Y020942D01*
X039923Y020942D01*
X039875Y020990D01*
X039875Y021087D01*
X039923Y021135D01*
X039923Y021237D02*
X039875Y021285D01*
X039875Y021382D01*
X039923Y021430D01*
X040020Y021382D02*
X040020Y021285D01*
X039972Y021237D01*
X039923Y021237D01*
X040020Y021382D02*
X040069Y021430D01*
X040117Y021430D01*
X040165Y021382D01*
X040165Y021285D01*
X040117Y021237D01*
X040875Y021285D02*
X040875Y021382D01*
X040923Y021430D01*
X041020Y021382D02*
X041020Y021285D01*
X040972Y021237D01*
X040923Y021237D01*
X040875Y021285D01*
X040923Y021135D02*
X040875Y021087D01*
X040875Y020990D01*
X040923Y020942D01*
X040972Y020942D01*
X041020Y020990D01*
X041020Y021087D01*
X041069Y021135D01*
X041117Y021135D01*
X041165Y021087D01*
X041165Y020990D01*
X041117Y020942D01*
X041117Y020841D02*
X041165Y020792D01*
X041165Y020696D01*
X041117Y020647D01*
X041069Y020647D01*
X040875Y020841D01*
X040875Y020647D01*
X040875Y020546D02*
X040875Y020353D01*
X041020Y020449D02*
X041020Y020546D01*
X041165Y020546D02*
X040875Y020546D01*
X041165Y020546D02*
X041165Y020353D01*
X041117Y021237D02*
X041165Y021285D01*
X041165Y021382D01*
X041117Y021430D01*
X041069Y021430D01*
X041020Y021382D01*
X040165Y020546D02*
X040165Y020353D01*
X040020Y020449D02*
X040020Y020546D01*
X039875Y020546D02*
X040165Y020546D01*
X040206Y022521D02*
X040520Y022835D01*
X040363Y022835D02*
X040363Y022521D01*
X040520Y022521D02*
X040206Y022835D01*
X040206Y022678D02*
X040520Y022678D01*
X042375Y021382D02*
X042375Y021285D01*
X042423Y021237D01*
X042520Y021237D01*
X042520Y021333D01*
X042617Y021237D02*
X042665Y021285D01*
X042665Y021382D01*
X042617Y021430D01*
X042423Y021430D01*
X042375Y021382D01*
X042375Y021135D02*
X042665Y021135D01*
X042375Y020942D01*
X042665Y020942D01*
X042665Y020841D02*
X042665Y020696D01*
X042617Y020647D01*
X042423Y020647D01*
X042375Y020696D01*
X042375Y020841D01*
X042665Y020841D01*
X043375Y020841D02*
X043375Y020696D01*
X043423Y020647D01*
X043617Y020647D01*
X043665Y020696D01*
X043665Y020841D01*
X043375Y020841D01*
X043375Y020942D02*
X043665Y020942D01*
X043665Y021135D02*
X043375Y020942D01*
X043375Y021135D02*
X043665Y021135D01*
X043617Y021237D02*
X043665Y021285D01*
X043665Y021382D01*
X043617Y021430D01*
X043423Y021430D01*
X043375Y021382D01*
X043375Y021285D01*
X043423Y021237D01*
X043520Y021237D01*
X043520Y021333D01*
X041415Y028210D02*
X041292Y028210D01*
X041230Y028272D01*
X041477Y028519D01*
X041477Y028272D01*
X041415Y028210D01*
X041230Y028272D02*
X041230Y028519D01*
X041292Y028580D01*
X041415Y028580D01*
X041477Y028519D01*
X041109Y028519D02*
X041047Y028580D01*
X040862Y028580D01*
X040862Y028210D01*
X041047Y028210D01*
X041109Y028272D01*
X041109Y028519D01*
X040740Y028580D02*
X040740Y028210D01*
X040617Y028334D01*
X040493Y028210D01*
X040493Y028580D01*
X040372Y028519D02*
X040310Y028580D01*
X040187Y028580D01*
X040125Y028519D01*
X040125Y028457D01*
X040187Y028395D01*
X040310Y028395D01*
X040372Y028334D01*
X040372Y028272D01*
X040310Y028210D01*
X040187Y028210D01*
X040125Y028272D01*
X038674Y030210D02*
X038736Y030272D01*
X038674Y030210D02*
X038551Y030210D01*
X038489Y030272D01*
X038489Y030519D01*
X038551Y030580D01*
X038674Y030580D01*
X038736Y030519D01*
X038367Y030519D02*
X038306Y030580D01*
X038182Y030580D01*
X038121Y030519D01*
X037998Y030580D02*
X037875Y030580D01*
X037937Y030580D02*
X037937Y030210D01*
X037998Y030210D02*
X037875Y030210D01*
X038121Y030210D02*
X038367Y030457D01*
X038367Y030519D01*
X038367Y030210D02*
X038121Y030210D01*
X038988Y036483D02*
X039302Y036796D01*
X039302Y036639D02*
X038988Y036639D01*
X038988Y036796D02*
X039302Y036483D01*
X039145Y036483D02*
X039145Y036796D01*
X028117Y014680D02*
X028069Y014680D01*
X028020Y014632D01*
X028020Y014535D01*
X027972Y014487D01*
X027923Y014487D01*
X027875Y014535D01*
X027875Y014632D01*
X027923Y014680D01*
X028117Y014680D02*
X028165Y014632D01*
X028165Y014535D01*
X028117Y014487D01*
X028117Y014385D02*
X028069Y014385D01*
X028020Y014337D01*
X028020Y014240D01*
X027972Y014192D01*
X027923Y014192D01*
X027875Y014240D01*
X027875Y014337D01*
X027923Y014385D01*
X028117Y014385D02*
X028165Y014337D01*
X028165Y014240D01*
X028117Y014192D01*
X028069Y014091D02*
X028165Y013994D01*
X027875Y013994D01*
X027875Y014091D02*
X027875Y013897D01*
X027875Y013796D02*
X027875Y013603D01*
X028020Y013699D02*
X028020Y013796D01*
X028165Y013796D02*
X027875Y013796D01*
X028165Y013796D02*
X028165Y013603D01*
X028923Y012180D02*
X028875Y012132D01*
X028875Y012035D01*
X028923Y011987D01*
X028972Y011987D01*
X029020Y012035D01*
X029020Y012132D01*
X029069Y012180D01*
X029117Y012180D01*
X029165Y012132D01*
X029165Y012035D01*
X029117Y011987D01*
X029165Y011885D02*
X029165Y011789D01*
X029165Y011837D02*
X028875Y011837D01*
X028875Y011885D02*
X028875Y011789D01*
X028875Y011689D02*
X028875Y011496D01*
X028923Y011430D02*
X028875Y011382D01*
X028875Y011285D01*
X028923Y011237D01*
X028972Y011237D01*
X029020Y011285D01*
X029020Y011382D01*
X029069Y011430D01*
X029117Y011430D01*
X029165Y011382D01*
X029165Y011285D01*
X029117Y011237D01*
X029117Y011135D02*
X028923Y011135D01*
X028875Y011087D01*
X028875Y010990D01*
X028923Y010942D01*
X029117Y010942D01*
X029165Y010990D01*
X029165Y011087D01*
X029117Y011135D01*
X029069Y010841D02*
X029165Y010744D01*
X028875Y010744D01*
X028875Y010841D02*
X028875Y010647D01*
X028923Y010430D02*
X028875Y010382D01*
X028875Y010285D01*
X028923Y010237D01*
X028972Y010237D01*
X029020Y010285D01*
X029020Y010382D01*
X029069Y010430D01*
X029117Y010430D01*
X029165Y010382D01*
X029165Y010285D01*
X029117Y010237D01*
X029117Y010135D02*
X028923Y010135D01*
X028875Y010087D01*
X028875Y009990D01*
X028923Y009942D01*
X028875Y009841D02*
X029165Y009841D01*
X029117Y009942D02*
X029165Y009990D01*
X029165Y010087D01*
X029117Y010135D01*
X028972Y009841D02*
X029165Y009647D01*
X029069Y009546D02*
X029165Y009449D01*
X028875Y009449D01*
X028875Y009353D02*
X028875Y009546D01*
X028875Y009647D02*
X029020Y009792D01*
X029165Y011592D02*
X028875Y011592D01*
X029069Y011689D02*
X029165Y011592D01*
D12*
X023726Y026492D02*
X022935Y026492D01*
X022935Y026887D01*
X023067Y027019D01*
X023330Y027019D01*
X023462Y026887D01*
X023462Y026492D01*
X023462Y027284D02*
X023462Y027416D01*
X023199Y027679D01*
X023462Y027679D02*
X022935Y027679D01*
X022935Y027944D02*
X022935Y028339D01*
X023067Y028471D01*
X023199Y028339D01*
X023199Y027944D01*
X023330Y027944D02*
X022935Y027944D01*
X023330Y027944D02*
X023462Y028076D01*
X023462Y028339D01*
X023330Y028736D02*
X023462Y028868D01*
X023462Y029131D01*
X023330Y029263D01*
X023067Y029263D01*
X022935Y029131D01*
X022935Y028868D01*
X023067Y028736D01*
X023330Y028736D01*
X023199Y029528D02*
X023067Y029528D01*
X022935Y029659D01*
X022935Y030055D01*
X023726Y030055D01*
X023726Y029659D01*
X023594Y029528D01*
X023462Y029528D01*
X023330Y029659D01*
X023330Y030055D01*
X023462Y030319D02*
X023462Y030451D01*
X023199Y030715D01*
X023462Y030715D02*
X022935Y030715D01*
X023199Y030979D02*
X023199Y031507D01*
X023330Y031507D02*
X023462Y031375D01*
X023462Y031111D01*
X023330Y030979D01*
X023199Y030979D01*
X022935Y031111D02*
X022935Y031375D01*
X023067Y031507D01*
X023330Y031507D01*
X023330Y031771D02*
X023067Y031771D01*
X022935Y031903D01*
X022935Y032298D01*
X022671Y032298D02*
X023462Y032298D01*
X023462Y031903D01*
X023330Y031771D01*
X022935Y032563D02*
X022935Y032826D01*
X022935Y032695D02*
X023462Y032695D01*
X023462Y032826D01*
X023726Y032695D02*
X023857Y032695D01*
X023330Y033091D02*
X022935Y033091D01*
X023330Y033091D02*
X023462Y033223D01*
X023462Y033618D01*
X022935Y033618D01*
X023067Y033883D02*
X022935Y034015D01*
X022935Y034278D01*
X023067Y034410D01*
X023330Y034278D02*
X023330Y034015D01*
X023199Y033883D01*
X023067Y033883D01*
X023330Y034278D02*
X023462Y034410D01*
X023594Y034410D01*
X023726Y034278D01*
X023726Y034015D01*
X023594Y033883D01*
X022172Y031243D02*
X021645Y030979D01*
X022172Y030715D01*
X022172Y030451D02*
X022436Y030187D01*
X021645Y030187D01*
X021645Y029924D02*
X021645Y030451D01*
X021645Y029659D02*
X021645Y029527D01*
X021777Y029527D01*
X021777Y029659D01*
X021645Y029659D01*
X021777Y029263D02*
X022304Y028736D01*
X021777Y028736D01*
X021645Y028868D01*
X021645Y029131D01*
X021777Y029263D01*
X022304Y029263D01*
X022436Y029131D01*
X022436Y028868D01*
X022304Y028736D01*
X023199Y029528D02*
X023330Y029659D01*
D13*
X024117Y035305D02*
X024190Y035305D01*
X024227Y035342D01*
X024227Y035415D01*
X024153Y035415D01*
X024080Y035342D02*
X024117Y035305D01*
X024080Y035342D02*
X024080Y035489D01*
X024117Y035525D01*
X024190Y035525D01*
X024227Y035489D01*
X024301Y035525D02*
X024448Y035305D01*
X024448Y035525D01*
X024522Y035525D02*
X024522Y035305D01*
X024632Y035305D01*
X024669Y035342D01*
X024669Y035489D01*
X024632Y035525D01*
X024522Y035525D01*
X024301Y035525D02*
X024301Y035305D01*
X024331Y036415D02*
X024404Y036489D01*
X024478Y036415D01*
X024478Y036635D01*
X024552Y036599D02*
X024552Y036452D01*
X024589Y036415D01*
X024662Y036415D01*
X024699Y036452D01*
X024773Y036489D02*
X024920Y036635D01*
X024773Y036635D02*
X024773Y036415D01*
X024810Y036525D02*
X024920Y036415D01*
X024699Y036599D02*
X024662Y036635D01*
X024589Y036635D01*
X024552Y036599D01*
X024331Y036635D02*
X024331Y036415D01*
X024257Y036452D02*
X024220Y036415D01*
X024147Y036415D01*
X024110Y036452D01*
X024147Y036525D02*
X024220Y036525D01*
X024257Y036489D01*
X024257Y036452D01*
X024147Y036525D02*
X024110Y036562D01*
X024110Y036599D01*
X024147Y036635D01*
X024220Y036635D01*
X024257Y036599D01*
X024311Y037415D02*
X024384Y037489D01*
X024458Y037415D01*
X024458Y037635D01*
X024532Y037635D02*
X024642Y037635D01*
X024679Y037599D01*
X024679Y037452D01*
X024642Y037415D01*
X024532Y037415D01*
X024532Y037635D01*
X024311Y037635D02*
X024311Y037415D01*
X024237Y037452D02*
X024200Y037415D01*
X024127Y037415D01*
X024090Y037452D01*
X024127Y037525D02*
X024200Y037525D01*
X024237Y037489D01*
X024237Y037452D01*
X024127Y037525D02*
X024090Y037562D01*
X024090Y037599D01*
X024127Y037635D01*
X024200Y037635D01*
X024237Y037599D01*
X035330Y027739D02*
X035330Y027592D01*
X035367Y027555D01*
X035440Y027555D01*
X035477Y027592D01*
X035477Y027665D01*
X035403Y027665D01*
X035330Y027739D02*
X035367Y027775D01*
X035440Y027775D01*
X035477Y027739D01*
X035551Y027775D02*
X035698Y027555D01*
X035698Y027775D01*
X035772Y027775D02*
X035882Y027775D01*
X035919Y027739D01*
X035919Y027592D01*
X035882Y027555D01*
X035772Y027555D01*
X035772Y027775D01*
X035551Y027775D02*
X035551Y027555D01*
X036940Y027569D02*
X036940Y027532D01*
X036977Y027495D01*
X037050Y027495D01*
X037087Y027459D01*
X037087Y027422D01*
X037050Y027385D01*
X036977Y027385D01*
X036940Y027422D01*
X036940Y027569D02*
X036977Y027605D01*
X037050Y027605D01*
X037087Y027569D01*
X037161Y027605D02*
X037161Y027385D01*
X037234Y027459D01*
X037308Y027385D01*
X037308Y027605D01*
X037382Y027569D02*
X037382Y027422D01*
X037419Y027385D01*
X037492Y027385D01*
X037529Y027422D01*
X037603Y027459D02*
X037750Y027605D01*
X037603Y027605D02*
X037603Y027385D01*
X037640Y027495D02*
X037750Y027385D01*
X037529Y027569D02*
X037492Y027605D01*
X037419Y027605D01*
X037382Y027569D01*
X038200Y027552D02*
X038237Y027515D01*
X038310Y027515D01*
X038347Y027479D01*
X038347Y027442D01*
X038310Y027405D01*
X038237Y027405D01*
X038200Y027442D01*
X038200Y027552D02*
X038200Y027589D01*
X038237Y027625D01*
X038310Y027625D01*
X038347Y027589D01*
X038421Y027625D02*
X038421Y027405D01*
X038494Y027479D01*
X038568Y027405D01*
X038568Y027625D01*
X038642Y027625D02*
X038752Y027625D01*
X038789Y027589D01*
X038789Y027442D01*
X038752Y027405D01*
X038642Y027405D01*
X038642Y027625D01*
X038632Y028805D02*
X038669Y028842D01*
X038669Y028989D01*
X038632Y029025D01*
X038522Y029025D01*
X038522Y028805D01*
X038632Y028805D01*
X038448Y028805D02*
X038448Y029025D01*
X038301Y029025D02*
X038448Y028805D01*
X038301Y028805D02*
X038301Y029025D01*
X038227Y028989D02*
X038190Y029025D01*
X038117Y029025D01*
X038080Y028989D01*
X038080Y028842D01*
X038117Y028805D01*
X038190Y028805D01*
X038227Y028842D01*
X038227Y028915D01*
X038153Y028915D01*
X037548Y028815D02*
X037438Y028925D01*
X037401Y028889D02*
X037548Y029035D01*
X037401Y029035D02*
X037401Y028815D01*
X037327Y028852D02*
X037290Y028815D01*
X037217Y028815D01*
X037180Y028852D01*
X037180Y028999D01*
X037217Y029035D01*
X037290Y029035D01*
X037327Y028999D01*
X036769Y029035D02*
X036622Y029035D01*
X036695Y029035D02*
X036695Y028815D01*
X036548Y028815D02*
X036548Y028962D01*
X036474Y029035D01*
X036401Y028962D01*
X036401Y028815D01*
X036327Y028852D02*
X036327Y028999D01*
X036290Y029035D01*
X036180Y029035D01*
X036180Y028815D01*
X036290Y028815D01*
X036327Y028852D01*
X036401Y028925D02*
X036548Y028925D01*
X040090Y029642D02*
X040127Y029605D01*
X040200Y029605D01*
X040237Y029642D01*
X040237Y029715D01*
X040163Y029715D01*
X040090Y029789D02*
X040090Y029642D01*
X040090Y029789D02*
X040127Y029825D01*
X040200Y029825D01*
X040237Y029789D01*
X040311Y029825D02*
X040458Y029605D01*
X040458Y029825D01*
X040532Y029825D02*
X040642Y029825D01*
X040679Y029789D01*
X040679Y029642D01*
X040642Y029605D01*
X040532Y029605D01*
X040532Y029825D01*
X040311Y029825D02*
X040311Y029605D01*
X040311Y030605D02*
X040458Y030825D01*
X040532Y030789D02*
X040569Y030825D01*
X040642Y030825D01*
X040679Y030789D01*
X040679Y030752D01*
X040532Y030605D01*
X040679Y030605D01*
X040458Y030605D02*
X040311Y030825D01*
X040237Y030789D02*
X040237Y030715D01*
X040200Y030679D01*
X040090Y030679D01*
X040163Y030679D02*
X040237Y030605D01*
X040090Y030605D02*
X040090Y030825D01*
X040200Y030825D01*
X040237Y030789D01*
X040163Y031605D02*
X040163Y031825D01*
X040090Y031825D02*
X040237Y031825D01*
X040311Y031825D02*
X040458Y031605D01*
X040532Y031605D02*
X040679Y031752D01*
X040679Y031789D01*
X040642Y031825D01*
X040569Y031825D01*
X040532Y031789D01*
X040458Y031825D02*
X040311Y031605D01*
X040532Y031605D02*
X040679Y031605D01*
D14*
X040860Y031445D02*
X040860Y031945D01*
X041110Y032195D01*
X041610Y032195D01*
X041860Y031945D01*
X041860Y031445D01*
X041610Y031195D01*
X041860Y030945D01*
X041860Y030445D01*
X041610Y030195D01*
X041860Y029945D01*
X041860Y029445D01*
X041610Y029195D01*
X041110Y029195D01*
X040860Y029445D01*
X040860Y029945D01*
X041110Y030195D01*
X040860Y030445D01*
X040860Y030945D01*
X041110Y031195D01*
X040860Y031445D01*
X038950Y029865D02*
X038700Y030115D01*
X038200Y030115D01*
X037950Y029865D01*
X037700Y030115D01*
X037200Y030115D01*
X036950Y029865D01*
X036700Y030115D01*
X036200Y030115D01*
X035950Y029865D01*
X035950Y029365D01*
X036200Y029115D01*
X036700Y029115D01*
X036950Y029365D01*
X037200Y029115D01*
X037700Y029115D01*
X037950Y029365D01*
X038200Y029115D01*
X038700Y029115D01*
X038950Y029365D01*
X038950Y029865D01*
X038704Y028714D02*
X038204Y028714D01*
X037954Y028464D01*
X037704Y028714D01*
X037204Y028714D01*
X036954Y028464D01*
X036704Y028714D01*
X036204Y028714D01*
X035954Y028464D01*
X035954Y027964D01*
X036204Y027714D01*
X036704Y027714D01*
X036954Y027964D01*
X037204Y027714D01*
X037704Y027714D01*
X037954Y027964D01*
X038204Y027714D01*
X038704Y027714D01*
X038954Y027964D01*
X039204Y027714D01*
X039704Y027714D01*
X039954Y027964D01*
X039954Y028464D01*
X039704Y028714D01*
X039204Y028714D01*
X038954Y028464D01*
X038704Y028714D01*
X037728Y030373D02*
X034185Y030373D01*
X034185Y033483D01*
X034775Y033483D01*
X034775Y035215D01*
X034185Y035215D01*
X034185Y038325D01*
X037689Y038325D01*
X037728Y038325D02*
X037728Y030373D01*
X041048Y028101D02*
X041048Y023377D01*
X042583Y023377D01*
X042660Y022445D02*
X042410Y022195D01*
X042160Y022445D01*
X041660Y022445D01*
X041410Y022195D01*
X041160Y022445D01*
X040660Y022445D01*
X040410Y022195D01*
X040160Y022445D01*
X039660Y022445D01*
X039410Y022195D01*
X039160Y022445D01*
X038660Y022445D01*
X038410Y022195D01*
X038160Y022445D01*
X037660Y022445D01*
X037410Y022195D01*
X037160Y022445D01*
X036660Y022445D01*
X036410Y022195D01*
X036160Y022445D01*
X035660Y022445D01*
X035410Y022195D01*
X035160Y022445D01*
X034660Y022445D01*
X034410Y022195D01*
X034410Y021695D01*
X034660Y021445D01*
X035160Y021445D01*
X035410Y021695D01*
X035660Y021445D01*
X036160Y021445D01*
X036410Y021695D01*
X036410Y022195D01*
X036410Y021695D01*
X036660Y021445D01*
X037160Y021445D01*
X037410Y021695D01*
X037660Y021445D01*
X038160Y021445D01*
X038410Y021695D01*
X038660Y021445D01*
X039160Y021445D01*
X039410Y021695D01*
X039660Y021445D01*
X040160Y021445D01*
X040410Y021695D01*
X040660Y021445D01*
X041160Y021445D01*
X041410Y021695D01*
X041660Y021445D01*
X042160Y021445D01*
X042410Y021695D01*
X042660Y021445D01*
X043160Y021445D01*
X043410Y021695D01*
X043410Y022195D01*
X043160Y022445D01*
X042660Y022445D01*
X044237Y023377D02*
X045733Y023377D01*
X045733Y028101D02*
X044237Y028101D01*
X044547Y029238D02*
X042445Y029238D01*
X042445Y041364D01*
X044547Y041364D01*
X041768Y042759D02*
X041217Y042759D01*
X040941Y042877D02*
X040941Y043153D01*
X040705Y042916D01*
X040705Y043389D01*
X040941Y043153D01*
X040941Y043428D01*
X041217Y043546D02*
X041768Y043546D01*
X041768Y042759D01*
X040429Y042759D02*
X039878Y042759D01*
X039878Y043546D01*
X040429Y043546D01*
X037181Y043554D02*
X037181Y042766D01*
X036630Y042766D01*
X036354Y042884D02*
X036354Y043160D01*
X036118Y042924D01*
X036118Y043396D01*
X036354Y043160D01*
X036354Y043436D01*
X036630Y043554D02*
X037181Y043554D01*
X035842Y043554D02*
X035291Y043554D01*
X035291Y042766D01*
X035842Y042766D01*
X032471Y042766D02*
X031920Y042766D01*
X031644Y042884D02*
X031644Y043160D01*
X031408Y042924D01*
X031408Y043396D01*
X031644Y043160D01*
X031644Y043436D01*
X031920Y043554D02*
X032471Y043554D01*
X032471Y042766D01*
X031132Y042766D02*
X030581Y042766D01*
X030581Y043554D01*
X031132Y043554D01*
X027581Y043460D02*
X027581Y042673D01*
X027030Y042673D01*
X026754Y042791D02*
X026754Y043066D01*
X026518Y042830D01*
X026518Y043303D01*
X026754Y043066D01*
X026754Y043342D01*
X027030Y043460D02*
X027581Y043460D01*
X026242Y043460D02*
X025691Y043460D01*
X025691Y042673D01*
X026242Y042673D01*
X022481Y042773D02*
X021930Y042773D01*
X021654Y042891D02*
X021654Y043166D01*
X021418Y042930D01*
X021418Y043403D01*
X021654Y043166D01*
X021654Y043442D01*
X021930Y043560D02*
X022481Y043560D01*
X022481Y042773D01*
X021142Y042773D02*
X020591Y042773D01*
X020591Y043560D01*
X021142Y043560D01*
X017768Y043566D02*
X017768Y042779D01*
X017217Y042779D01*
X016942Y042897D02*
X016942Y043173D01*
X016705Y042936D01*
X016705Y043409D01*
X016942Y043173D01*
X016942Y043448D01*
X017217Y043566D02*
X017768Y043566D01*
X016430Y043566D02*
X015879Y043566D01*
X015879Y042779D01*
X016430Y042779D01*
X013175Y042866D02*
X012623Y042866D01*
X012348Y042984D02*
X012348Y043260D01*
X012112Y043024D01*
X012112Y043496D01*
X012348Y043260D01*
X012348Y043536D01*
X012623Y043654D02*
X013175Y043654D01*
X013175Y042866D01*
X011836Y042866D02*
X011285Y042866D01*
X011285Y043654D01*
X011836Y043654D01*
X008475Y043560D02*
X008475Y042773D01*
X007923Y042773D01*
X007648Y042891D02*
X007648Y043166D01*
X007412Y042930D01*
X007412Y043403D01*
X007648Y043166D01*
X007648Y043442D01*
X007923Y043560D02*
X008475Y043560D01*
X007136Y043560D02*
X006585Y043560D01*
X006585Y042773D01*
X007136Y042773D01*
X005720Y040144D02*
X019894Y040144D01*
X019894Y008648D01*
X005720Y008648D01*
X005720Y040144D01*
X007630Y038432D02*
X017984Y038432D01*
X017984Y010361D01*
X007630Y010361D01*
X007630Y038432D01*
X002911Y039784D02*
X002911Y040572D01*
X002360Y040572D01*
X002084Y040414D02*
X001848Y040178D01*
X002084Y039942D01*
X002084Y040414D01*
X001848Y040454D02*
X001848Y040178D01*
X001848Y039903D01*
X001572Y039784D02*
X001021Y039784D01*
X001021Y040572D01*
X001572Y040572D01*
X002360Y039784D02*
X002911Y039784D01*
X002933Y032682D02*
X002382Y032682D01*
X002106Y032525D02*
X001870Y032288D01*
X002106Y032052D01*
X002106Y032525D01*
X001870Y032564D02*
X001870Y032288D01*
X001870Y032013D01*
X001594Y031895D02*
X001043Y031895D01*
X001043Y032682D01*
X001594Y032682D01*
X002382Y031895D02*
X002933Y031895D01*
X002933Y032682D01*
X002856Y024800D02*
X002305Y024800D01*
X002029Y024643D02*
X001793Y024407D01*
X002029Y024170D01*
X002029Y024643D01*
X001793Y024682D02*
X001793Y024407D01*
X001793Y024131D01*
X001517Y024013D02*
X000966Y024013D01*
X000966Y024800D01*
X001517Y024800D01*
X002305Y024013D02*
X002856Y024013D01*
X002856Y024800D01*
X002906Y017062D02*
X002355Y017062D01*
X002079Y016905D02*
X001843Y016668D01*
X002079Y016432D01*
X002079Y016905D01*
X001843Y016944D02*
X001843Y016668D01*
X001843Y016393D01*
X001568Y016275D02*
X001016Y016275D01*
X001016Y017062D01*
X001568Y017062D01*
X002355Y016275D02*
X002906Y016275D01*
X002906Y017062D01*
X011718Y008063D02*
X011718Y003339D01*
X012702Y003339D01*
X011737Y002870D02*
X011560Y002870D01*
X011737Y002870D02*
X011737Y004681D01*
X011560Y004681D01*
X011560Y004169D02*
X010772Y004169D01*
X010772Y004681D02*
X010595Y004681D01*
X010595Y002870D01*
X010772Y002870D01*
X009946Y002939D02*
X009446Y002939D01*
X007916Y003439D02*
X007918Y003510D01*
X007924Y003581D01*
X007934Y003652D01*
X007948Y003721D01*
X007965Y003790D01*
X007987Y003858D01*
X008012Y003925D01*
X008041Y003990D01*
X008073Y004053D01*
X008109Y004115D01*
X008148Y004174D01*
X008191Y004231D01*
X008236Y004286D01*
X008285Y004338D01*
X008336Y004387D01*
X008390Y004433D01*
X008447Y004477D01*
X008505Y004517D01*
X008566Y004553D01*
X008629Y004587D01*
X008694Y004616D01*
X008760Y004642D01*
X008828Y004665D01*
X008896Y004683D01*
X008966Y004698D01*
X009036Y004709D01*
X009107Y004716D01*
X009178Y004719D01*
X009249Y004718D01*
X009320Y004713D01*
X009391Y004704D01*
X009461Y004691D01*
X009530Y004675D01*
X009598Y004654D01*
X009665Y004630D01*
X009731Y004602D01*
X009794Y004570D01*
X009856Y004535D01*
X009916Y004497D01*
X009974Y004455D01*
X010029Y004411D01*
X010082Y004363D01*
X010132Y004312D01*
X010179Y004259D01*
X010223Y004203D01*
X010264Y004145D01*
X010302Y004084D01*
X010336Y004022D01*
X010366Y003957D01*
X010393Y003892D01*
X010417Y003824D01*
X010436Y003756D01*
X010452Y003687D01*
X010464Y003616D01*
X010472Y003546D01*
X010476Y003475D01*
X010476Y003403D01*
X010472Y003332D01*
X010464Y003262D01*
X010452Y003191D01*
X010436Y003122D01*
X010417Y003054D01*
X010393Y002986D01*
X010366Y002921D01*
X010336Y002856D01*
X010302Y002794D01*
X010264Y002733D01*
X010223Y002675D01*
X010179Y002619D01*
X010132Y002566D01*
X010082Y002515D01*
X010029Y002467D01*
X009974Y002423D01*
X009916Y002381D01*
X009856Y002343D01*
X009794Y002308D01*
X009731Y002276D01*
X009665Y002248D01*
X009598Y002224D01*
X009530Y002203D01*
X009461Y002187D01*
X009391Y002174D01*
X009320Y002165D01*
X009249Y002160D01*
X009178Y002159D01*
X009107Y002162D01*
X009036Y002169D01*
X008966Y002180D01*
X008896Y002195D01*
X008828Y002213D01*
X008760Y002236D01*
X008694Y002262D01*
X008629Y002291D01*
X008566Y002325D01*
X008505Y002361D01*
X008447Y002401D01*
X008390Y002445D01*
X008336Y002491D01*
X008285Y002540D01*
X008236Y002592D01*
X008191Y002647D01*
X008148Y002704D01*
X008109Y002763D01*
X008073Y002825D01*
X008041Y002888D01*
X008012Y002953D01*
X007987Y003020D01*
X007965Y003088D01*
X007948Y003157D01*
X007934Y003226D01*
X007924Y003297D01*
X007918Y003368D01*
X007916Y003439D01*
X010474Y005915D02*
X010476Y005930D01*
X010482Y005943D01*
X010491Y005955D01*
X010502Y005964D01*
X010516Y005970D01*
X010531Y005972D01*
X010546Y005970D01*
X010559Y005964D01*
X010571Y005955D01*
X010580Y005944D01*
X010586Y005930D01*
X010588Y005915D01*
X010586Y005900D01*
X010580Y005887D01*
X010571Y005875D01*
X010560Y005866D01*
X010546Y005860D01*
X010531Y005858D01*
X010516Y005860D01*
X010503Y005866D01*
X010491Y005875D01*
X010482Y005886D01*
X010476Y005900D01*
X010474Y005915D01*
X011718Y008063D02*
X012702Y008063D01*
X015458Y008063D02*
X016442Y008063D01*
X016442Y003339D01*
X015458Y003339D01*
X017680Y003151D02*
X017680Y002651D01*
X016900Y003401D02*
X016902Y003472D01*
X016908Y003543D01*
X016918Y003614D01*
X016932Y003683D01*
X016949Y003752D01*
X016971Y003820D01*
X016996Y003887D01*
X017025Y003952D01*
X017057Y004015D01*
X017093Y004077D01*
X017132Y004136D01*
X017175Y004193D01*
X017220Y004248D01*
X017269Y004300D01*
X017320Y004349D01*
X017374Y004395D01*
X017431Y004439D01*
X017489Y004479D01*
X017550Y004515D01*
X017613Y004549D01*
X017678Y004578D01*
X017744Y004604D01*
X017812Y004627D01*
X017880Y004645D01*
X017950Y004660D01*
X018020Y004671D01*
X018091Y004678D01*
X018162Y004681D01*
X018233Y004680D01*
X018304Y004675D01*
X018375Y004666D01*
X018445Y004653D01*
X018514Y004637D01*
X018582Y004616D01*
X018649Y004592D01*
X018715Y004564D01*
X018778Y004532D01*
X018840Y004497D01*
X018900Y004459D01*
X018958Y004417D01*
X019013Y004373D01*
X019066Y004325D01*
X019116Y004274D01*
X019163Y004221D01*
X019207Y004165D01*
X019248Y004107D01*
X019286Y004046D01*
X019320Y003984D01*
X019350Y003919D01*
X019377Y003854D01*
X019401Y003786D01*
X019420Y003718D01*
X019436Y003649D01*
X019448Y003578D01*
X019456Y003508D01*
X019460Y003437D01*
X019460Y003365D01*
X019456Y003294D01*
X019448Y003224D01*
X019436Y003153D01*
X019420Y003084D01*
X019401Y003016D01*
X019377Y002948D01*
X019350Y002883D01*
X019320Y002818D01*
X019286Y002756D01*
X019248Y002695D01*
X019207Y002637D01*
X019163Y002581D01*
X019116Y002528D01*
X019066Y002477D01*
X019013Y002429D01*
X018958Y002385D01*
X018900Y002343D01*
X018840Y002305D01*
X018778Y002270D01*
X018715Y002238D01*
X018649Y002210D01*
X018582Y002186D01*
X018514Y002165D01*
X018445Y002149D01*
X018375Y002136D01*
X018304Y002127D01*
X018233Y002122D01*
X018162Y002121D01*
X018091Y002124D01*
X018020Y002131D01*
X017950Y002142D01*
X017880Y002157D01*
X017812Y002175D01*
X017744Y002198D01*
X017678Y002224D01*
X017613Y002253D01*
X017550Y002287D01*
X017489Y002323D01*
X017431Y002363D01*
X017374Y002407D01*
X017320Y002453D01*
X017269Y002502D01*
X017220Y002554D01*
X017175Y002609D01*
X017132Y002666D01*
X017093Y002725D01*
X017057Y002787D01*
X017025Y002850D01*
X016996Y002915D01*
X016971Y002982D01*
X016949Y003050D01*
X016932Y003119D01*
X016918Y003188D01*
X016908Y003259D01*
X016902Y003330D01*
X016900Y003401D01*
X018199Y005265D02*
X018201Y005280D01*
X018207Y005293D01*
X018216Y005305D01*
X018227Y005314D01*
X018241Y005320D01*
X018256Y005322D01*
X018271Y005320D01*
X018284Y005314D01*
X018296Y005305D01*
X018305Y005294D01*
X018311Y005280D01*
X018313Y005265D01*
X018311Y005250D01*
X018305Y005237D01*
X018296Y005225D01*
X018285Y005216D01*
X018271Y005210D01*
X018256Y005208D01*
X018241Y005210D01*
X018228Y005216D01*
X018216Y005225D01*
X018207Y005236D01*
X018201Y005250D01*
X018199Y005265D01*
X019595Y005081D02*
X019772Y005081D01*
X019595Y005081D02*
X019595Y003270D01*
X019772Y003270D01*
X020560Y003270D02*
X020737Y003270D01*
X020737Y005081D01*
X020560Y005081D01*
X020702Y005439D02*
X019718Y005439D01*
X019718Y010163D01*
X020702Y010163D01*
X023458Y010163D02*
X024442Y010163D01*
X024442Y005439D01*
X023458Y005439D01*
X022016Y004175D02*
X021516Y004175D01*
X020986Y003675D02*
X020988Y003746D01*
X020994Y003817D01*
X021004Y003888D01*
X021018Y003957D01*
X021035Y004026D01*
X021057Y004094D01*
X021082Y004161D01*
X021111Y004226D01*
X021143Y004289D01*
X021179Y004351D01*
X021218Y004410D01*
X021261Y004467D01*
X021306Y004522D01*
X021355Y004574D01*
X021406Y004623D01*
X021460Y004669D01*
X021517Y004713D01*
X021575Y004753D01*
X021636Y004789D01*
X021699Y004823D01*
X021764Y004852D01*
X021830Y004878D01*
X021898Y004901D01*
X021966Y004919D01*
X022036Y004934D01*
X022106Y004945D01*
X022177Y004952D01*
X022248Y004955D01*
X022319Y004954D01*
X022390Y004949D01*
X022461Y004940D01*
X022531Y004927D01*
X022600Y004911D01*
X022668Y004890D01*
X022735Y004866D01*
X022801Y004838D01*
X022864Y004806D01*
X022926Y004771D01*
X022986Y004733D01*
X023044Y004691D01*
X023099Y004647D01*
X023152Y004599D01*
X023202Y004548D01*
X023249Y004495D01*
X023293Y004439D01*
X023334Y004381D01*
X023372Y004320D01*
X023406Y004258D01*
X023436Y004193D01*
X023463Y004128D01*
X023487Y004060D01*
X023506Y003992D01*
X023522Y003923D01*
X023534Y003852D01*
X023542Y003782D01*
X023546Y003711D01*
X023546Y003639D01*
X023542Y003568D01*
X023534Y003498D01*
X023522Y003427D01*
X023506Y003358D01*
X023487Y003290D01*
X023463Y003222D01*
X023436Y003157D01*
X023406Y003092D01*
X023372Y003030D01*
X023334Y002969D01*
X023293Y002911D01*
X023249Y002855D01*
X023202Y002802D01*
X023152Y002751D01*
X023099Y002703D01*
X023044Y002659D01*
X022986Y002617D01*
X022926Y002579D01*
X022864Y002544D01*
X022801Y002512D01*
X022735Y002484D01*
X022668Y002460D01*
X022600Y002439D01*
X022531Y002423D01*
X022461Y002410D01*
X022390Y002401D01*
X022319Y002396D01*
X022248Y002395D01*
X022177Y002398D01*
X022106Y002405D01*
X022036Y002416D01*
X021966Y002431D01*
X021898Y002449D01*
X021830Y002472D01*
X021764Y002498D01*
X021699Y002527D01*
X021636Y002561D01*
X021575Y002597D01*
X021517Y002637D01*
X021460Y002681D01*
X021406Y002727D01*
X021355Y002776D01*
X021306Y002828D01*
X021261Y002883D01*
X021218Y002940D01*
X021179Y002999D01*
X021143Y003061D01*
X021111Y003124D01*
X021082Y003189D01*
X021057Y003256D01*
X021035Y003324D01*
X021018Y003393D01*
X021004Y003462D01*
X020994Y003533D01*
X020988Y003604D01*
X020986Y003675D01*
X020560Y004569D02*
X019772Y004569D01*
X024816Y008100D02*
X024816Y008651D01*
X024934Y008927D02*
X025210Y008927D01*
X024974Y009163D01*
X025446Y009163D01*
X025210Y008927D01*
X025486Y008927D01*
X025604Y008651D02*
X025604Y008100D01*
X024816Y008100D01*
X025804Y007515D02*
X026304Y007515D01*
X025274Y007015D02*
X025276Y007086D01*
X025282Y007157D01*
X025292Y007228D01*
X025306Y007297D01*
X025323Y007366D01*
X025345Y007434D01*
X025370Y007501D01*
X025399Y007566D01*
X025431Y007629D01*
X025467Y007691D01*
X025506Y007750D01*
X025549Y007807D01*
X025594Y007862D01*
X025643Y007914D01*
X025694Y007963D01*
X025748Y008009D01*
X025805Y008053D01*
X025863Y008093D01*
X025924Y008129D01*
X025987Y008163D01*
X026052Y008192D01*
X026118Y008218D01*
X026186Y008241D01*
X026254Y008259D01*
X026324Y008274D01*
X026394Y008285D01*
X026465Y008292D01*
X026536Y008295D01*
X026607Y008294D01*
X026678Y008289D01*
X026749Y008280D01*
X026819Y008267D01*
X026888Y008251D01*
X026956Y008230D01*
X027023Y008206D01*
X027089Y008178D01*
X027152Y008146D01*
X027214Y008111D01*
X027274Y008073D01*
X027332Y008031D01*
X027387Y007987D01*
X027440Y007939D01*
X027490Y007888D01*
X027537Y007835D01*
X027581Y007779D01*
X027622Y007721D01*
X027660Y007660D01*
X027694Y007598D01*
X027724Y007533D01*
X027751Y007468D01*
X027775Y007400D01*
X027794Y007332D01*
X027810Y007263D01*
X027822Y007192D01*
X027830Y007122D01*
X027834Y007051D01*
X027834Y006979D01*
X027830Y006908D01*
X027822Y006838D01*
X027810Y006767D01*
X027794Y006698D01*
X027775Y006630D01*
X027751Y006562D01*
X027724Y006497D01*
X027694Y006432D01*
X027660Y006370D01*
X027622Y006309D01*
X027581Y006251D01*
X027537Y006195D01*
X027490Y006142D01*
X027440Y006091D01*
X027387Y006043D01*
X027332Y005999D01*
X027274Y005957D01*
X027214Y005919D01*
X027152Y005884D01*
X027089Y005852D01*
X027023Y005824D01*
X026956Y005800D01*
X026888Y005779D01*
X026819Y005763D01*
X026749Y005750D01*
X026678Y005741D01*
X026607Y005736D01*
X026536Y005735D01*
X026465Y005738D01*
X026394Y005745D01*
X026324Y005756D01*
X026254Y005771D01*
X026186Y005789D01*
X026118Y005812D01*
X026052Y005838D01*
X025987Y005867D01*
X025924Y005901D01*
X025863Y005937D01*
X025805Y005977D01*
X025748Y006021D01*
X025694Y006067D01*
X025643Y006116D01*
X025594Y006168D01*
X025549Y006223D01*
X025506Y006280D01*
X025467Y006339D01*
X025431Y006401D01*
X025399Y006464D01*
X025370Y006529D01*
X025345Y006596D01*
X025323Y006664D01*
X025306Y006733D01*
X025292Y006802D01*
X025282Y006873D01*
X025276Y006944D01*
X025274Y007015D01*
X025630Y005391D02*
X027990Y005391D01*
X028201Y006644D02*
X029166Y006644D01*
X029284Y006801D01*
X029284Y007470D01*
X029284Y008218D02*
X029284Y009084D01*
X028044Y009084D01*
X028044Y008218D01*
X028064Y007470D02*
X028064Y006801D01*
X028201Y006644D01*
X030255Y007442D02*
X030413Y007284D01*
X033878Y007284D01*
X034035Y007442D01*
X034035Y010906D01*
X033878Y011064D01*
X030413Y011064D01*
X030255Y010906D01*
X030255Y007442D01*
X028360Y009445D02*
X027860Y009445D01*
X027610Y009695D01*
X027610Y010195D01*
X027860Y010445D01*
X027610Y010695D01*
X027610Y011195D01*
X027860Y011445D01*
X027610Y011695D01*
X027610Y012195D01*
X027860Y012445D01*
X027610Y012695D01*
X027610Y013195D01*
X027860Y013445D01*
X028360Y013445D01*
X028610Y013195D01*
X028610Y012695D01*
X028360Y012445D01*
X028610Y012195D01*
X028610Y011695D01*
X028360Y011445D01*
X028610Y011195D01*
X028610Y010695D01*
X028360Y010445D01*
X028610Y010195D01*
X028610Y009695D01*
X028360Y009445D01*
X025604Y009439D02*
X025604Y009990D01*
X024816Y009990D01*
X024816Y009439D01*
X025630Y005391D02*
X025630Y002811D01*
X027990Y002811D01*
X028101Y014944D02*
X029066Y014944D01*
X029184Y015101D01*
X029184Y015770D01*
X029184Y016518D02*
X029184Y017384D01*
X027944Y017384D01*
X027944Y016518D01*
X027964Y015770D02*
X027964Y015101D01*
X028101Y014944D01*
X030315Y015462D02*
X030315Y018927D01*
X030472Y019084D01*
X033937Y019084D01*
X034094Y018927D01*
X034094Y015462D01*
X033937Y015305D01*
X030472Y015305D01*
X030315Y015462D01*
X025456Y020639D02*
X023756Y020639D01*
X023406Y021439D02*
X023406Y022244D01*
X023756Y023039D02*
X025456Y023039D01*
X025460Y023345D02*
X023760Y023345D01*
X023410Y024145D02*
X023410Y024950D01*
X023760Y025745D02*
X025460Y025745D01*
X025810Y024938D02*
X025810Y024145D01*
X023910Y024545D02*
X023912Y024597D01*
X023918Y024649D01*
X023928Y024701D01*
X023941Y024751D01*
X023958Y024801D01*
X023979Y024849D01*
X024004Y024895D01*
X024032Y024939D01*
X024063Y024981D01*
X024097Y025021D01*
X024134Y025058D01*
X024174Y025092D01*
X024216Y025123D01*
X024260Y025151D01*
X024306Y025176D01*
X024354Y025197D01*
X024404Y025214D01*
X024454Y025227D01*
X024506Y025237D01*
X024558Y025243D01*
X024610Y025245D01*
X024662Y025243D01*
X024714Y025237D01*
X024766Y025227D01*
X024816Y025214D01*
X024866Y025197D01*
X024914Y025176D01*
X024960Y025151D01*
X025004Y025123D01*
X025046Y025092D01*
X025086Y025058D01*
X025123Y025021D01*
X025157Y024981D01*
X025188Y024939D01*
X025216Y024895D01*
X025241Y024849D01*
X025262Y024801D01*
X025279Y024751D01*
X025292Y024701D01*
X025302Y024649D01*
X025308Y024597D01*
X025310Y024545D01*
X025308Y024493D01*
X025302Y024441D01*
X025292Y024389D01*
X025279Y024339D01*
X025262Y024289D01*
X025241Y024241D01*
X025216Y024195D01*
X025188Y024151D01*
X025157Y024109D01*
X025123Y024069D01*
X025086Y024032D01*
X025046Y023998D01*
X025004Y023967D01*
X024960Y023939D01*
X024914Y023914D01*
X024866Y023893D01*
X024816Y023876D01*
X024766Y023863D01*
X024714Y023853D01*
X024662Y023847D01*
X024610Y023845D01*
X024558Y023847D01*
X024506Y023853D01*
X024454Y023863D01*
X024404Y023876D01*
X024354Y023893D01*
X024306Y023914D01*
X024260Y023939D01*
X024216Y023967D01*
X024174Y023998D01*
X024134Y024032D01*
X024097Y024069D01*
X024063Y024109D01*
X024032Y024151D01*
X024004Y024195D01*
X023979Y024241D01*
X023958Y024289D01*
X023941Y024339D01*
X023928Y024389D01*
X023918Y024441D01*
X023912Y024493D01*
X023910Y024545D01*
X025806Y022232D02*
X025806Y021439D01*
X023906Y021839D02*
X023908Y021891D01*
X023914Y021943D01*
X023924Y021995D01*
X023937Y022045D01*
X023954Y022095D01*
X023975Y022143D01*
X024000Y022189D01*
X024028Y022233D01*
X024059Y022275D01*
X024093Y022315D01*
X024130Y022352D01*
X024170Y022386D01*
X024212Y022417D01*
X024256Y022445D01*
X024302Y022470D01*
X024350Y022491D01*
X024400Y022508D01*
X024450Y022521D01*
X024502Y022531D01*
X024554Y022537D01*
X024606Y022539D01*
X024658Y022537D01*
X024710Y022531D01*
X024762Y022521D01*
X024812Y022508D01*
X024862Y022491D01*
X024910Y022470D01*
X024956Y022445D01*
X025000Y022417D01*
X025042Y022386D01*
X025082Y022352D01*
X025119Y022315D01*
X025153Y022275D01*
X025184Y022233D01*
X025212Y022189D01*
X025237Y022143D01*
X025258Y022095D01*
X025275Y022045D01*
X025288Y021995D01*
X025298Y021943D01*
X025304Y021891D01*
X025306Y021839D01*
X025304Y021787D01*
X025298Y021735D01*
X025288Y021683D01*
X025275Y021633D01*
X025258Y021583D01*
X025237Y021535D01*
X025212Y021489D01*
X025184Y021445D01*
X025153Y021403D01*
X025119Y021363D01*
X025082Y021326D01*
X025042Y021292D01*
X025000Y021261D01*
X024956Y021233D01*
X024910Y021208D01*
X024862Y021187D01*
X024812Y021170D01*
X024762Y021157D01*
X024710Y021147D01*
X024658Y021141D01*
X024606Y021139D01*
X024554Y021141D01*
X024502Y021147D01*
X024450Y021157D01*
X024400Y021170D01*
X024350Y021187D01*
X024302Y021208D01*
X024256Y021233D01*
X024212Y021261D01*
X024170Y021292D01*
X024130Y021326D01*
X024093Y021363D01*
X024059Y021403D01*
X024028Y021445D01*
X024000Y021489D01*
X023975Y021535D01*
X023954Y021583D01*
X023937Y021633D01*
X023924Y021683D01*
X023914Y021735D01*
X023908Y021787D01*
X023906Y021839D01*
X028167Y024432D02*
X030867Y024432D01*
X030926Y024434D01*
X030984Y024440D01*
X031043Y024449D01*
X031100Y024463D01*
X031156Y024480D01*
X031211Y024501D01*
X031265Y024525D01*
X031317Y024553D01*
X031367Y024584D01*
X031415Y024618D01*
X031460Y024655D01*
X031503Y024696D01*
X031544Y024739D01*
X031581Y024784D01*
X031615Y024832D01*
X031646Y024882D01*
X031674Y024934D01*
X031698Y024988D01*
X031719Y025043D01*
X031736Y025099D01*
X031750Y025156D01*
X031759Y025215D01*
X031765Y025273D01*
X031767Y025332D01*
X031765Y025391D01*
X031759Y025449D01*
X031750Y025508D01*
X031736Y025565D01*
X031719Y025621D01*
X031698Y025676D01*
X031674Y025730D01*
X031646Y025782D01*
X031615Y025832D01*
X031581Y025880D01*
X031544Y025925D01*
X031503Y025968D01*
X031460Y026009D01*
X031415Y026046D01*
X031367Y026080D01*
X031317Y026111D01*
X031265Y026139D01*
X031211Y026163D01*
X031156Y026184D01*
X031100Y026201D01*
X031043Y026215D01*
X030984Y026224D01*
X030926Y026230D01*
X030867Y026232D01*
X028167Y026232D01*
X028108Y026230D01*
X028050Y026224D01*
X027991Y026215D01*
X027934Y026201D01*
X027878Y026184D01*
X027823Y026163D01*
X027769Y026139D01*
X027717Y026111D01*
X027667Y026080D01*
X027619Y026046D01*
X027574Y026009D01*
X027531Y025968D01*
X027490Y025925D01*
X027453Y025880D01*
X027419Y025832D01*
X027388Y025782D01*
X027360Y025730D01*
X027336Y025676D01*
X027315Y025621D01*
X027298Y025565D01*
X027284Y025508D01*
X027275Y025449D01*
X027269Y025391D01*
X027267Y025332D01*
X027269Y025273D01*
X027275Y025215D01*
X027284Y025156D01*
X027298Y025099D01*
X027315Y025043D01*
X027336Y024988D01*
X027360Y024934D01*
X027388Y024882D01*
X027419Y024832D01*
X027453Y024784D01*
X027490Y024739D01*
X027531Y024696D01*
X027574Y024655D01*
X027619Y024618D01*
X027667Y024584D01*
X027717Y024553D01*
X027769Y024525D01*
X027823Y024501D01*
X027878Y024480D01*
X027934Y024463D01*
X027991Y024449D01*
X028050Y024440D01*
X028108Y024434D01*
X028167Y024432D01*
X030350Y026642D02*
X031531Y026642D01*
X031138Y026681D02*
X031136Y026708D01*
X031131Y026734D01*
X031122Y026759D01*
X031109Y026783D01*
X031094Y026805D01*
X031075Y026825D01*
X031055Y026842D01*
X031032Y026856D01*
X031007Y026867D01*
X030981Y026874D01*
X030954Y026878D01*
X030928Y026878D01*
X030901Y026874D01*
X030875Y026867D01*
X030850Y026856D01*
X030827Y026842D01*
X030807Y026825D01*
X030788Y026805D01*
X030773Y026783D01*
X030760Y026759D01*
X030751Y026734D01*
X030746Y026708D01*
X030744Y026681D01*
X030350Y027626D02*
X030350Y028729D01*
X030350Y029713D02*
X031531Y029713D01*
X032338Y029451D02*
X032338Y029018D01*
X032495Y028861D01*
X033125Y028861D01*
X033282Y029018D01*
X033282Y029451D01*
X033282Y030239D02*
X033282Y030829D01*
X032338Y030829D01*
X032338Y030239D01*
X031910Y031395D02*
X031910Y033095D01*
X031115Y033445D02*
X030310Y033445D01*
X029510Y033095D02*
X029510Y031395D01*
X029207Y031389D02*
X029207Y033089D01*
X028411Y033439D02*
X027607Y033439D01*
X026807Y033089D02*
X026807Y031389D01*
X027607Y031039D02*
X028400Y031039D01*
X028460Y029673D02*
X027667Y029673D01*
X026860Y029323D02*
X026860Y027623D01*
X027655Y027273D02*
X028460Y027273D01*
X029260Y027623D02*
X029260Y029323D01*
X027360Y028473D02*
X027362Y028525D01*
X027368Y028577D01*
X027378Y028629D01*
X027391Y028679D01*
X027408Y028729D01*
X027429Y028777D01*
X027454Y028823D01*
X027482Y028867D01*
X027513Y028909D01*
X027547Y028949D01*
X027584Y028986D01*
X027624Y029020D01*
X027666Y029051D01*
X027710Y029079D01*
X027756Y029104D01*
X027804Y029125D01*
X027854Y029142D01*
X027904Y029155D01*
X027956Y029165D01*
X028008Y029171D01*
X028060Y029173D01*
X028112Y029171D01*
X028164Y029165D01*
X028216Y029155D01*
X028266Y029142D01*
X028316Y029125D01*
X028364Y029104D01*
X028410Y029079D01*
X028454Y029051D01*
X028496Y029020D01*
X028536Y028986D01*
X028573Y028949D01*
X028607Y028909D01*
X028638Y028867D01*
X028666Y028823D01*
X028691Y028777D01*
X028712Y028729D01*
X028729Y028679D01*
X028742Y028629D01*
X028752Y028577D01*
X028758Y028525D01*
X028760Y028473D01*
X028758Y028421D01*
X028752Y028369D01*
X028742Y028317D01*
X028729Y028267D01*
X028712Y028217D01*
X028691Y028169D01*
X028666Y028123D01*
X028638Y028079D01*
X028607Y028037D01*
X028573Y027997D01*
X028536Y027960D01*
X028496Y027926D01*
X028454Y027895D01*
X028410Y027867D01*
X028364Y027842D01*
X028316Y027821D01*
X028266Y027804D01*
X028216Y027791D01*
X028164Y027781D01*
X028112Y027775D01*
X028060Y027773D01*
X028008Y027775D01*
X027956Y027781D01*
X027904Y027791D01*
X027854Y027804D01*
X027804Y027821D01*
X027756Y027842D01*
X027710Y027867D01*
X027666Y027895D01*
X027624Y027926D01*
X027584Y027960D01*
X027547Y027997D01*
X027513Y028037D01*
X027482Y028079D01*
X027454Y028123D01*
X027429Y028169D01*
X027408Y028217D01*
X027391Y028267D01*
X027378Y028317D01*
X027368Y028369D01*
X027362Y028421D01*
X027360Y028473D01*
X030310Y031045D02*
X031103Y031045D01*
X030010Y032245D02*
X030012Y032297D01*
X030018Y032349D01*
X030028Y032401D01*
X030041Y032451D01*
X030058Y032501D01*
X030079Y032549D01*
X030104Y032595D01*
X030132Y032639D01*
X030163Y032681D01*
X030197Y032721D01*
X030234Y032758D01*
X030274Y032792D01*
X030316Y032823D01*
X030360Y032851D01*
X030406Y032876D01*
X030454Y032897D01*
X030504Y032914D01*
X030554Y032927D01*
X030606Y032937D01*
X030658Y032943D01*
X030710Y032945D01*
X030762Y032943D01*
X030814Y032937D01*
X030866Y032927D01*
X030916Y032914D01*
X030966Y032897D01*
X031014Y032876D01*
X031060Y032851D01*
X031104Y032823D01*
X031146Y032792D01*
X031186Y032758D01*
X031223Y032721D01*
X031257Y032681D01*
X031288Y032639D01*
X031316Y032595D01*
X031341Y032549D01*
X031362Y032501D01*
X031379Y032451D01*
X031392Y032401D01*
X031402Y032349D01*
X031408Y032297D01*
X031410Y032245D01*
X031408Y032193D01*
X031402Y032141D01*
X031392Y032089D01*
X031379Y032039D01*
X031362Y031989D01*
X031341Y031941D01*
X031316Y031895D01*
X031288Y031851D01*
X031257Y031809D01*
X031223Y031769D01*
X031186Y031732D01*
X031146Y031698D01*
X031104Y031667D01*
X031060Y031639D01*
X031014Y031614D01*
X030966Y031593D01*
X030916Y031576D01*
X030866Y031563D01*
X030814Y031553D01*
X030762Y031547D01*
X030710Y031545D01*
X030658Y031547D01*
X030606Y031553D01*
X030554Y031563D01*
X030504Y031576D01*
X030454Y031593D01*
X030406Y031614D01*
X030360Y031639D01*
X030316Y031667D01*
X030274Y031698D01*
X030234Y031732D01*
X030197Y031769D01*
X030163Y031809D01*
X030132Y031851D01*
X030104Y031895D01*
X030079Y031941D01*
X030058Y031989D01*
X030041Y032039D01*
X030028Y032089D01*
X030018Y032141D01*
X030012Y032193D01*
X030010Y032245D01*
X027307Y032239D02*
X027309Y032291D01*
X027315Y032343D01*
X027325Y032395D01*
X027338Y032445D01*
X027355Y032495D01*
X027376Y032543D01*
X027401Y032589D01*
X027429Y032633D01*
X027460Y032675D01*
X027494Y032715D01*
X027531Y032752D01*
X027571Y032786D01*
X027613Y032817D01*
X027657Y032845D01*
X027703Y032870D01*
X027751Y032891D01*
X027801Y032908D01*
X027851Y032921D01*
X027903Y032931D01*
X027955Y032937D01*
X028007Y032939D01*
X028059Y032937D01*
X028111Y032931D01*
X028163Y032921D01*
X028213Y032908D01*
X028263Y032891D01*
X028311Y032870D01*
X028357Y032845D01*
X028401Y032817D01*
X028443Y032786D01*
X028483Y032752D01*
X028520Y032715D01*
X028554Y032675D01*
X028585Y032633D01*
X028613Y032589D01*
X028638Y032543D01*
X028659Y032495D01*
X028676Y032445D01*
X028689Y032395D01*
X028699Y032343D01*
X028705Y032291D01*
X028707Y032239D01*
X028705Y032187D01*
X028699Y032135D01*
X028689Y032083D01*
X028676Y032033D01*
X028659Y031983D01*
X028638Y031935D01*
X028613Y031889D01*
X028585Y031845D01*
X028554Y031803D01*
X028520Y031763D01*
X028483Y031726D01*
X028443Y031692D01*
X028401Y031661D01*
X028357Y031633D01*
X028311Y031608D01*
X028263Y031587D01*
X028213Y031570D01*
X028163Y031557D01*
X028111Y031547D01*
X028059Y031541D01*
X028007Y031539D01*
X027955Y031541D01*
X027903Y031547D01*
X027851Y031557D01*
X027801Y031570D01*
X027751Y031587D01*
X027703Y031608D01*
X027657Y031633D01*
X027613Y031661D01*
X027571Y031692D01*
X027531Y031726D01*
X027494Y031763D01*
X027460Y031803D01*
X027429Y031845D01*
X027401Y031889D01*
X027376Y031935D01*
X027355Y031983D01*
X027338Y032033D01*
X027325Y032083D01*
X027315Y032135D01*
X027309Y032187D01*
X027307Y032239D01*
X028426Y034873D02*
X028426Y035818D01*
X029016Y035818D01*
X029804Y035818D02*
X030237Y035818D01*
X030394Y035660D01*
X030394Y035030D01*
X030237Y034873D01*
X029804Y034873D01*
X029016Y034873D02*
X028426Y034873D01*
X028317Y036747D02*
X026737Y036747D01*
X026737Y038480D01*
X028469Y038480D01*
X028469Y036897D01*
X028317Y036747D01*
X024022Y036764D02*
X024022Y036264D01*
X023772Y036014D01*
X024022Y035764D01*
X024022Y035264D01*
X023772Y035014D01*
X023272Y035014D01*
X023022Y035264D01*
X023022Y035764D01*
X023272Y036014D01*
X023022Y036264D01*
X023022Y036764D01*
X023272Y037014D01*
X023022Y037264D01*
X023022Y037764D01*
X023272Y038014D01*
X023022Y038264D01*
X023022Y038764D01*
X023272Y039014D01*
X023772Y039014D01*
X024022Y038764D01*
X024022Y038264D01*
X023772Y038014D01*
X024022Y037764D01*
X024022Y037264D01*
X023772Y037014D01*
X024022Y036764D01*
X031531Y028729D02*
X031531Y027626D01*
X034185Y033483D02*
X034185Y035215D01*
X034864Y036099D02*
X034864Y036599D01*
X041048Y028101D02*
X042583Y028101D01*
D15*
X025440Y004101D03*
D16*
X030459Y007599D02*
X030461Y007619D01*
X030466Y007639D01*
X030476Y007657D01*
X030488Y007674D01*
X030503Y007688D01*
X030521Y007698D01*
X030540Y007706D01*
X030560Y007710D01*
X030580Y007710D01*
X030600Y007706D01*
X030619Y007698D01*
X030637Y007688D01*
X030652Y007674D01*
X030664Y007657D01*
X030674Y007639D01*
X030679Y007619D01*
X030681Y007599D01*
X030679Y007579D01*
X030674Y007559D01*
X030664Y007541D01*
X030652Y007524D01*
X030637Y007510D01*
X030619Y007500D01*
X030600Y007492D01*
X030580Y007488D01*
X030560Y007488D01*
X030540Y007492D01*
X030521Y007500D01*
X030503Y007510D01*
X030488Y007524D01*
X030476Y007541D01*
X030466Y007559D01*
X030461Y007579D01*
X030459Y007599D01*
X030519Y015620D02*
X030521Y015640D01*
X030526Y015660D01*
X030536Y015678D01*
X030548Y015695D01*
X030563Y015709D01*
X030581Y015719D01*
X030600Y015727D01*
X030620Y015731D01*
X030640Y015731D01*
X030660Y015727D01*
X030679Y015719D01*
X030697Y015709D01*
X030712Y015695D01*
X030724Y015678D01*
X030734Y015660D01*
X030739Y015640D01*
X030741Y015620D01*
X030739Y015600D01*
X030734Y015580D01*
X030724Y015562D01*
X030712Y015545D01*
X030697Y015531D01*
X030679Y015521D01*
X030660Y015513D01*
X030640Y015509D01*
X030620Y015509D01*
X030600Y015513D01*
X030581Y015521D01*
X030563Y015531D01*
X030548Y015545D01*
X030536Y015562D01*
X030526Y015580D01*
X030521Y015600D01*
X030519Y015620D01*
X013827Y013081D02*
X013827Y012081D01*
X012827Y012081D01*
X012577Y012081D01*
X011827Y012081D01*
X011827Y013081D01*
X012827Y013081D01*
X013077Y013081D01*
X013827Y013081D01*
X013827Y019960D02*
X012827Y019960D01*
X012577Y019960D01*
X011827Y019960D01*
X011827Y020960D01*
X012827Y020960D01*
X013077Y020960D01*
X013827Y020960D01*
X013827Y019960D01*
X013817Y027824D02*
X012817Y027824D01*
X012567Y027824D01*
X011817Y027824D01*
X011817Y028824D01*
X012817Y028824D01*
X013067Y028824D01*
X013817Y028824D01*
X013817Y027824D01*
X013832Y035700D02*
X012832Y035700D01*
X012582Y035700D01*
X011832Y035700D01*
X011832Y036700D01*
X012832Y036700D01*
X013082Y036700D01*
X013832Y036700D01*
X013832Y035700D01*
X027898Y037121D02*
X027900Y037148D01*
X027906Y037175D01*
X027915Y037201D01*
X027928Y037225D01*
X027944Y037248D01*
X027963Y037267D01*
X027985Y037284D01*
X028009Y037298D01*
X028034Y037308D01*
X028061Y037315D01*
X028088Y037318D01*
X028116Y037317D01*
X028143Y037312D01*
X028169Y037304D01*
X028193Y037292D01*
X028216Y037276D01*
X028237Y037258D01*
X028254Y037237D01*
X028269Y037213D01*
X028280Y037188D01*
X028288Y037162D01*
X028292Y037135D01*
X028292Y037107D01*
X028288Y037080D01*
X028280Y037054D01*
X028269Y037029D01*
X028254Y037005D01*
X028237Y036984D01*
X028216Y036966D01*
X028194Y036950D01*
X028169Y036938D01*
X028143Y036930D01*
X028116Y036925D01*
X028088Y036924D01*
X028061Y036927D01*
X028034Y036934D01*
X028009Y036944D01*
X027985Y036958D01*
X027963Y036975D01*
X027944Y036994D01*
X027928Y037017D01*
X027915Y037041D01*
X027906Y037067D01*
X027900Y037094D01*
X027898Y037121D01*
D17*
X003401Y002464D02*
X003401Y001964D01*
X004101Y001964D01*
X004101Y002264D01*
X005101Y002264D01*
X005101Y001964D01*
X006101Y001964D01*
X006101Y002264D01*
X007101Y002264D01*
X007101Y001964D01*
X007801Y001964D01*
X007801Y002564D01*
X003401Y002564D01*
X003401Y002464D01*
X003401Y002564D02*
X003401Y006764D01*
X004101Y006764D01*
X005101Y006764D02*
X006101Y006764D01*
X007101Y006764D02*
X007801Y006764D01*
X007801Y002564D01*
X007101Y001964D02*
X006101Y001964D01*
X005101Y001964D02*
X004101Y001964D01*
X004925Y009382D02*
X000625Y009382D01*
X000625Y015782D01*
X000125Y015782D01*
X000125Y015082D01*
X000425Y015082D01*
X000425Y014082D01*
X000125Y014082D01*
X000125Y013082D01*
X000425Y013082D01*
X000425Y012082D01*
X000125Y012082D01*
X000125Y011082D01*
X000425Y011082D01*
X000425Y010082D01*
X000125Y010082D01*
X000125Y009382D01*
X000625Y009382D01*
X000125Y010082D02*
X000125Y011082D01*
X000125Y012082D02*
X000125Y013082D01*
X000125Y014082D02*
X000125Y015082D01*
X000625Y015782D02*
X004925Y015782D01*
X004925Y015082D01*
X004925Y014082D02*
X004925Y013082D01*
X004925Y012082D02*
X004925Y011082D01*
X004925Y010082D02*
X004925Y009382D01*
X004931Y017244D02*
X000631Y017244D01*
X000631Y023644D01*
X000131Y023644D01*
X000131Y022944D01*
X000431Y022944D01*
X000431Y021944D01*
X000131Y021944D01*
X000131Y020944D01*
X000431Y020944D01*
X000431Y019944D01*
X000131Y019944D01*
X000131Y018944D01*
X000431Y018944D01*
X000431Y017944D01*
X000131Y017944D01*
X000131Y017244D01*
X000631Y017244D01*
X000131Y017944D02*
X000131Y018944D01*
X000131Y019944D02*
X000131Y020944D01*
X000131Y021944D02*
X000131Y022944D01*
X000631Y023644D02*
X004931Y023644D01*
X004931Y022944D01*
X004931Y021944D02*
X004931Y020944D01*
X004931Y019944D02*
X004931Y018944D01*
X004931Y017944D02*
X004931Y017244D01*
X004949Y025120D02*
X000649Y025120D01*
X000649Y031520D01*
X000149Y031520D01*
X000149Y030820D01*
X000449Y030820D01*
X000449Y029820D01*
X000149Y029820D01*
X000149Y028820D01*
X000449Y028820D01*
X000449Y027820D01*
X000149Y027820D01*
X000149Y026820D01*
X000449Y026820D01*
X000449Y025820D01*
X000149Y025820D01*
X000149Y025120D01*
X000649Y025120D01*
X000149Y025820D02*
X000149Y026820D01*
X000149Y027820D02*
X000149Y028820D01*
X000149Y029820D02*
X000149Y030820D01*
X000649Y031520D02*
X004949Y031520D01*
X004949Y030820D01*
X004949Y029820D02*
X004949Y028820D01*
X004949Y027820D02*
X004949Y026820D01*
X004949Y025820D02*
X004949Y025120D01*
X004949Y033004D02*
X000649Y033004D01*
X000649Y039404D01*
X000149Y039404D01*
X000149Y038704D01*
X000449Y038704D01*
X000449Y037704D01*
X000149Y037704D01*
X000149Y036704D01*
X000449Y036704D01*
X000449Y035704D01*
X000149Y035704D01*
X000149Y034704D01*
X000449Y034704D01*
X000449Y033704D01*
X000149Y033704D01*
X000149Y033004D01*
X000649Y033004D01*
X000149Y033704D02*
X000149Y034704D01*
X000149Y035704D02*
X000149Y036704D01*
X000149Y037704D02*
X000149Y038704D01*
X000649Y039404D02*
X004949Y039404D01*
X004949Y038704D01*
X004949Y037704D02*
X004949Y036704D01*
X004949Y035704D02*
X004949Y034704D01*
X004949Y033704D02*
X004949Y033004D01*
X015897Y031216D02*
X015897Y030822D01*
X016094Y030822D01*
X016487Y030822D02*
X016684Y030822D01*
X016684Y031216D01*
X016340Y031314D02*
X016241Y031314D01*
X016094Y038722D02*
X015897Y038722D01*
X015897Y039116D01*
X016241Y039214D02*
X016340Y039214D01*
X016684Y039116D02*
X016684Y038722D01*
X016487Y038722D01*
X016930Y044369D02*
X015930Y044369D01*
X014930Y044369D02*
X014230Y044369D01*
X014230Y048569D01*
X018630Y048569D01*
X018630Y048669D01*
X018630Y049169D01*
X017930Y049169D01*
X017930Y048869D01*
X016930Y048869D01*
X016930Y049169D01*
X015930Y049169D01*
X015930Y048869D01*
X014930Y048869D01*
X014930Y049169D01*
X014230Y049169D01*
X014230Y048569D01*
X013865Y048569D02*
X009465Y048569D01*
X009465Y044369D01*
X010165Y044369D01*
X009168Y044369D02*
X009168Y048569D01*
X004768Y048569D01*
X004768Y044369D01*
X005468Y044369D01*
X006468Y044369D02*
X007468Y044369D01*
X008468Y044369D02*
X009168Y044369D01*
X011165Y044369D02*
X012165Y044369D01*
X013165Y044369D02*
X013865Y044369D01*
X013865Y048569D01*
X013865Y048669D01*
X013865Y049169D01*
X013165Y049169D01*
X013165Y048869D01*
X012165Y048869D01*
X012165Y049169D01*
X011165Y049169D01*
X011165Y048869D01*
X010165Y048869D01*
X010165Y049169D01*
X009465Y049169D01*
X009465Y048569D01*
X009168Y048569D02*
X009168Y048669D01*
X009168Y049169D01*
X008468Y049169D01*
X008468Y048869D01*
X007468Y048869D01*
X007468Y049169D01*
X006468Y049169D01*
X006468Y048869D01*
X005468Y048869D01*
X005468Y049169D01*
X004768Y049169D01*
X004768Y048569D01*
X005468Y049169D02*
X006468Y049169D01*
X007468Y049169D02*
X008468Y049169D01*
X010165Y049169D02*
X011165Y049169D01*
X012165Y049169D02*
X013165Y049169D01*
X014930Y049169D02*
X015930Y049169D01*
X016930Y049169D02*
X017930Y049169D01*
X018630Y048569D02*
X018630Y044369D01*
X017930Y044369D01*
X018921Y044369D02*
X018921Y048569D01*
X023321Y048569D01*
X023321Y048669D01*
X023321Y049169D01*
X022621Y049169D01*
X022621Y048869D01*
X021621Y048869D01*
X021621Y049169D01*
X020621Y049169D01*
X020621Y048869D01*
X019621Y048869D01*
X019621Y049169D01*
X018921Y049169D01*
X018921Y048569D01*
X019621Y049169D02*
X020621Y049169D01*
X021621Y049169D02*
X022621Y049169D01*
X023321Y048569D02*
X023321Y044369D01*
X022621Y044369D01*
X021621Y044369D02*
X020621Y044369D01*
X019621Y044369D02*
X018921Y044369D01*
X024036Y044388D02*
X024036Y048588D01*
X028436Y048588D01*
X028436Y048688D01*
X028436Y049188D01*
X027736Y049188D01*
X027736Y048888D01*
X026736Y048888D01*
X026736Y049188D01*
X025736Y049188D01*
X025736Y048888D01*
X024736Y048888D01*
X024736Y049188D01*
X024036Y049188D01*
X024036Y048588D01*
X024736Y049188D02*
X025736Y049188D01*
X026736Y049188D02*
X027736Y049188D01*
X028436Y048588D02*
X028436Y044388D01*
X027736Y044388D01*
X026736Y044388D02*
X025736Y044388D01*
X024736Y044388D02*
X024036Y044388D01*
X028800Y044369D02*
X028800Y048569D01*
X033200Y048569D01*
X033200Y048669D01*
X033200Y049169D01*
X032500Y049169D01*
X032500Y048869D01*
X031500Y048869D01*
X031500Y049169D01*
X030500Y049169D01*
X030500Y048869D01*
X029500Y048869D01*
X029500Y049169D01*
X028800Y049169D01*
X028800Y048569D01*
X029500Y049169D02*
X030500Y049169D01*
X031500Y049169D02*
X032500Y049169D01*
X033200Y048569D02*
X033200Y044369D01*
X032500Y044369D01*
X031500Y044369D02*
X030500Y044369D01*
X029500Y044369D02*
X028800Y044369D01*
X033512Y044349D02*
X033512Y048549D01*
X037912Y048549D01*
X037912Y048649D01*
X037912Y049149D01*
X037212Y049149D01*
X037212Y048849D01*
X036212Y048849D01*
X036212Y049149D01*
X035212Y049149D01*
X035212Y048849D01*
X034212Y048849D01*
X034212Y049149D01*
X033512Y049149D01*
X033512Y048549D01*
X034212Y049149D02*
X035212Y049149D01*
X036212Y049149D02*
X037212Y049149D01*
X037912Y048549D02*
X037912Y044349D01*
X037212Y044349D01*
X036212Y044349D02*
X035212Y044349D01*
X034212Y044349D02*
X033512Y044349D01*
X038245Y044369D02*
X038245Y048569D01*
X042645Y048569D01*
X042645Y048669D01*
X042645Y049169D01*
X041945Y049169D01*
X041945Y048869D01*
X040945Y048869D01*
X040945Y049169D01*
X039945Y049169D01*
X039945Y048869D01*
X038945Y048869D01*
X038945Y049169D01*
X038245Y049169D01*
X038245Y048569D01*
X038945Y049169D02*
X039945Y049169D01*
X040945Y049169D02*
X041945Y049169D01*
X042645Y048569D02*
X042645Y044369D01*
X041945Y044369D01*
X040945Y044369D02*
X039945Y044369D01*
X038945Y044369D02*
X038245Y044369D01*
X029560Y035745D02*
X029560Y034945D01*
X032410Y029695D02*
X033210Y029695D01*
X038885Y020214D02*
X047385Y020214D01*
X047385Y013914D01*
X038885Y013914D01*
X038885Y020214D01*
X034315Y014309D02*
X029433Y014309D01*
X029433Y013955D01*
X029433Y012773D02*
X029433Y012419D01*
X034315Y012419D01*
X034315Y012773D01*
X034315Y013955D02*
X034315Y014309D01*
X038885Y011714D02*
X047385Y011714D01*
X047385Y005414D01*
X038885Y005414D01*
X038885Y011714D01*
X034576Y006409D02*
X029694Y006409D01*
X029694Y006055D01*
X029694Y004873D02*
X029694Y004519D01*
X034576Y004519D01*
X034576Y004873D01*
X034576Y006055D02*
X034576Y006409D01*
X016684Y015122D02*
X016684Y015516D01*
X016340Y015614D02*
X016241Y015614D01*
X015897Y015516D02*
X015897Y015122D01*
X016094Y015122D01*
X016487Y015122D02*
X016684Y015122D01*
X016684Y022922D02*
X016684Y023316D01*
X016340Y023414D02*
X016241Y023414D01*
X015897Y023316D02*
X015897Y022922D01*
X016094Y022922D01*
X016487Y022922D02*
X016684Y022922D01*
D18*
X028068Y015924D02*
X029090Y015924D01*
X029190Y007624D02*
X028168Y007624D01*
M02*
